<?xml version="1.0" encoding="utf-8"?>
<!-- Generator: Adobe Illustrator 28.1.0, SVG Export Plug-In . SVG Version: 6.00 Build 0)  -->
<svg version="1.1" id="Layer_1" xmlns="http://www.w3.org/2000/svg" xmlns:xlink="http://www.w3.org/1999/xlink" x="0px" y="0px"
	 viewBox="0 0 1080 1080" style="enable-background:new 0 0 1080 1080;" xml:space="preserve">
<style type="text/css">
	.st0{display:none;}
	.st1{display:inline;opacity:0.03;fill:#161616;}
	.st2{fill:url(#SVGID_1_);}
	.st3{fill:url(#SVGID_00000153700695714807055460000017337204662582205834_);}
	.st4{fill:url(#SVGID_00000066486637401518780220000007936892436860282041_);}
	.st5{fill:url(#SVGID_00000156553068516823939100000016009409479134687381_);}
	.st6{fill:url(#SVGID_00000165209914174854228660000014628113458314345601_);}
	.st7{fill:url(#SVGID_00000028296404144806876110000000534942639275982745_);}
	.st8{fill:url(#SVGID_00000168083040572881081030000010861407718291242130_);}
	.st9{fill:url(#SVGID_00000171686943429957520510000000512488347288281253_);}
	.st10{fill:url(#SVGID_00000096742178484377540430000013666259319373814678_);}
	.st11{fill:url(#SVGID_00000137815676735856409630000001291183547312680376_);}
	.st12{fill:url(#SVGID_00000076561199433409855610000010177823142241105290_);}
	.st13{fill:url(#SVGID_00000081634907505997697530000007310453733414711995_);}
	.st14{fill:url(#SVGID_00000110448115333439070450000000066487743743974576_);}
	.st15{fill:url(#SVGID_00000134930150299025394960000000843531327266966661_);}
	.st16{fill:url(#SVGID_00000144320072412576910920000014908361751990033802_);}
	.st17{fill:url(#SVGID_00000042000802488795124350000001259685703183040413_);}
	.st18{fill:url(#SVGID_00000145770056355998007640000017936181271935491213_);}
	.st19{fill:url(#SVGID_00000097469289323324070080000005761113459001915526_);}
	.st20{fill:#606161;}
	.st21{display:inline;}
	.st22{fill:url(#SVGID_00000124128971449103928090000014116516368124048820_);}
	.st23{fill:url(#SVGID_00000052791399746981055880000013921432102397662090_);}
	.st24{fill:url(#SVGID_00000000196517241981826560000013001289343796451477_);}
	.st25{fill:url(#SVGID_00000007389987566031192090000007247334710579752599_);}
	.st26{fill:url(#SVGID_00000030447907490752136250000007776078370284552884_);}
	.st27{fill:url(#SVGID_00000131359803930306871100000015155635507030752919_);}
	.st28{fill:url(#SVGID_00000107586336128473202590000004932701910678164134_);}
	.st29{fill:url(#SVGID_00000137824256042878548350000018138365170954179983_);}
	.st30{fill:url(#SVGID_00000157309914091425765510000002258219947279706001_);}
	.st31{fill:url(#SVGID_00000061461840645808938140000007428641652913235375_);}
	.st32{fill:url(#SVGID_00000114068163882795324900000017745959551213191857_);}
	.st33{fill:url(#SVGID_00000175304720403677045960000008879840971356041093_);}
	.st34{fill:url(#SVGID_00000152247459463777284060000017014783219141756802_);}
	.st35{fill:url(#SVGID_00000156582224280962259450000003572427702383794862_);}
	.st36{fill:url(#SVGID_00000103258925499805767170000007164738012071969702_);}
	.st37{fill:url(#SVGID_00000042009786422491048070000013841909604550474917_);}
	.st38{fill:url(#SVGID_00000090256461035637650960000004623904482522955701_);}
	.st39{fill:url(#SVGID_00000044169799409486958030000005627474876260526006_);}
	.st40{fill:url(#SVGID_00000035516064123486311580000018138328858923596162_);}
	.st41{fill:url(#SVGID_00000032630637248944919160000017473317593155909026_);}
	.st42{fill:url(#SVGID_00000107564526286971239460000012222379258155051145_);}
	.st43{fill:url(#SVGID_00000054224641346719369790000013889573080499342725_);}
	.st44{fill:url(#SVGID_00000067933672474540259930000010052982102734370730_);}
	.st45{fill:url(#SVGID_00000124875060521400969600000006249497343704696511_);}
	.st46{fill:url(#SVGID_00000181085595508521163220000005830402400482160559_);}
	.st47{fill:url(#SVGID_00000047051748525190533780000005744144887057403312_);}
	.st48{fill:url(#SVGID_00000029729711843127162250000003197012199012041654_);}
	.st49{fill:url(#SVGID_00000150092655937022499220000000095997588679868825_);}
	.st50{fill:url(#SVGID_00000016043404994591832540000002933922451964294588_);}
	.st51{fill:url(#SVGID_00000115513299096609853280000008482979011617220745_);}
	.st52{fill:url(#SVGID_00000150823965564656160690000008331690403695694477_);}
	.st53{fill:url(#SVGID_00000104692249078478270850000006573240222816092557_);}
	.st54{fill:url(#SVGID_00000096019023755062453470000009473855633579146393_);}
	.st55{fill:url(#SVGID_00000089561990622479768840000005567604722546977158_);}
	.st56{fill:url(#SVGID_00000019641670609462250400000015251218955121939640_);}
	.st57{fill:url(#SVGID_00000081624508006986343010000010779990032916022679_);}
	.st58{fill:url(#SVGID_00000024693043372023913250000010104311988228510350_);}
	.st59{fill:url(#SVGID_00000016046234161329280670000013781352887842129322_);}
	.st60{fill:url(#SVGID_00000034779103094009627270000003510900011420229288_);}
	.st61{fill:url(#SVGID_00000047760694829799028250000003293177446852148392_);}
	.st62{fill:url(#SVGID_00000016765668237458594950000000569064561393492364_);}
	.st63{fill:url(#SVGID_00000071534601585346588170000013467137494456271514_);}
	.st64{fill:url(#SVGID_00000009552708543733927450000000127123187845409969_);}
	.st65{fill:url(#SVGID_00000001628473173954412710000012138910573643997827_);}
	.st66{fill:url(#SVGID_00000170991176986468487120000014958411234586635446_);}
	.st67{fill:url(#SVGID_00000102517207011973833280000016004636665974164389_);}
	.st68{fill:url(#SVGID_00000161612702079411395380000013511526187169686413_);}
	.st69{fill:url(#SVGID_00000056429799838123962890000000215329023937662904_);}
	.st70{fill:url(#SVGID_00000165924025786121797920000008583750999616219039_);}
	.st71{fill:url(#SVGID_00000018207971783890625330000018122420372251209615_);}
	.st72{fill:url(#SVGID_00000129888963079981077460000013752522791015540152_);}
	.st73{fill:url(#SVGID_00000088813358343262284260000011284220826119846573_);}
	.st74{fill:url(#SVGID_00000062879499986603503770000005579854856035239850_);}
	.st75{fill:url(#SVGID_00000136381348048383774830000002442220436105691271_);}
	.st76{fill:#FFFFFF;}
	.st77{fill:url(#SVGID_00000141448926299246795960000004947125244302528440_);}
	.st78{fill:url(#SVGID_00000093179085258019044300000000606764540416867456_);}
	.st79{fill:url(#SVGID_00000088820399298640836430000010654069880177937571_);}
	.st80{fill:url(#SVGID_00000049203976187461111100000017850438840469288113_);}
	.st81{fill:url(#SVGID_00000183934307772727852400000014491474185324321961_);}
	.st82{fill:url(#SVGID_00000127001620300505946910000005232616188445054103_);}
	.st83{fill:url(#SVGID_00000178176870285737102430000009146211668075669174_);}
	.st84{fill:url(#SVGID_00000060010825413652171910000008690044068120042666_);}
	.st85{fill:url(#SVGID_00000043419298559255156290000002138483463616025264_);}
	.st86{fill:url(#SVGID_00000039834662609139196130000003063340878020821643_);}
	.st87{fill:url(#SVGID_00000182523657115815296250000007801879076203284401_);}
	.st88{fill:url(#SVGID_00000157307221279848008400000011090014862506450348_);}
	.st89{fill:url(#SVGID_00000171678774031549315030000011109191883248766336_);}
	.st90{fill:url(#SVGID_00000027596431131259127610000014264077058961072014_);}
	.st91{fill:url(#SVGID_00000131347808898415630000000009296617813086386599_);}
	.st92{fill:url(#SVGID_00000045597871042708187240000007002151494600077207_);}
	.st93{fill:url(#SVGID_00000114778607222176621370000001547912330414902204_);}
	.st94{fill:url(#SVGID_00000090291761913114969160000009814256363591837875_);}
</style>
<g class="st0">
	<rect class="st1" width="1080" height="1080"/>
</g>
<g>
	<g>
		<linearGradient id="SVGID_1_" gradientUnits="userSpaceOnUse" x1="817.6793" y1="522.0747" x2="857.6323" y2="522.0747">
			<stop  offset="0" style="stop-color:#F8A16B"/>
			<stop  offset="0.7016" style="stop-color:#F05485"/>
			<stop  offset="1" style="stop-color:#EC3290"/>
		</linearGradient>
		<path class="st2" d="M820,453.56c0.08,0.02,0.22,0.04,0.29,0.08c1.22,0.55,4.41,4.1,5.62,5.34c12.5,12.73,21.73,28.3,26.92,45.37
			c8.17,26.99,6.04,57.95-7.37,82.97c-0.41,0.76-1.38,3.06-2.1,3.28c11.3-21.17,15.35-45.45,11.56-69.14
			c-3.57-21.71-13.7-41.8-29.04-57.57c-2.56-2.61-5.22-5.41-8.19-7.55C818.4,455.37,819.21,454.47,820,453.56z"/>
		
			<linearGradient id="SVGID_00000101074427004075794100000017094470415629539471_" gradientUnits="userSpaceOnUse" x1="635.894" y1="482.6692" x2="728.6699" y2="482.6692">
			<stop  offset="0" style="stop-color:#F8A16B"/>
			<stop  offset="0.7016" style="stop-color:#F05485"/>
			<stop  offset="1" style="stop-color:#EC3290"/>
		</linearGradient>
		<path style="fill:url(#SVGID_00000101074427004075794100000017094470415629539471_);" d="M728.44,430.01l0.23,0.01
			c-21.25,4.01-40.87,14.15-56.43,29.17c-20.53,20.07-32.32,47.42-32.8,76.13l-3.12-0.04l-0.37-0.29c-0.02-0.18-0.03-0.36-0.04-0.53
			c-0.15-3.42,0.76-8.37,1.27-11.82c3.43-22.87,13.81-43.17,29.43-60.07c13.13-14.21,30.82-24.37,49.27-29.87
			C719.85,431.53,724.3,430.17,728.44,430.01z"/>
		
			<linearGradient id="SVGID_00000081616659559365449510000012776303366959369898_" gradientUnits="userSpaceOnUse" x1="802.3571" y1="512.7373" x2="850.3902" y2="512.7373">
			<stop  offset="0" style="stop-color:#F8A16B"/>
			<stop  offset="0.7016" style="stop-color:#F05485"/>
			<stop  offset="1" style="stop-color:#EC3290"/>
		</linearGradient>
		<path style="fill:url(#SVGID_00000081616659559365449510000012776303366959369898_);" d="M804.38,450.5
			c2.98,1.66,5.83,4.18,8.46,6.37c13.82,11.43,24.42,26.26,30.77,43.04c7.01,18.45,8.62,38.51,4.65,57.84
			c-1.16,5.81-2.79,11.8-5.22,17.22l-0.14-0.15c6.22-19.05,8.31-34.86,4.68-54.71c-3.91-20.67-14.19-39.6-29.39-54.14
			c-4.91-4.65-10.27-8.58-15.82-12.41C802.94,452.49,803.68,451.5,804.38,450.5z"/>
		
			<linearGradient id="SVGID_00000054984670057390891790000010232524535398965133_" gradientUnits="userSpaceOnUse" x1="643.393" y1="494.8605" x2="715.7612" y2="494.8605">
			<stop  offset="0" style="stop-color:#F8A16B"/>
			<stop  offset="0.7016" style="stop-color:#F05485"/>
			<stop  offset="1" style="stop-color:#EC3290"/>
		</linearGradient>
		<path style="fill:url(#SVGID_00000054984670057390891790000010232524535398965133_);" d="M715.61,440.49l0.15-0.01
			c-0.05,0.24-2.6,1.03-3.03,1.18c-9.09,3.2-17.93,8.33-25.65,14.07c-22.61,16.89-37.13,42.45-40.07,70.51
			c-0.37,3.79-0.67,7.77-0.52,11.58c0.14,3.34,0.98,7.72,0.5,10.94c-0.69,0.44-1.79,0.38-2.6,0.42l-0.58,0.07l-0.25-0.41
			c-0.96-23.35,2.15-42.89,14.6-63.17c11.04-17.98,26.91-32.5,46.3-41.03C708.03,443.06,711.79,441.4,715.61,440.49z"/>
		
			<linearGradient id="SVGID_00000088845565835726519290000003664305293714167463_" gradientUnits="userSpaceOnUse" x1="787.4764" y1="505.1624" x2="842.9662" y2="505.1624">
			<stop  offset="0" style="stop-color:#F8A16B"/>
			<stop  offset="0.7016" style="stop-color:#F05485"/>
			<stop  offset="1" style="stop-color:#EC3290"/>
		</linearGradient>
		<path style="fill:url(#SVGID_00000088845565835726519290000003664305293714167463_);" d="M789,450.09
			c15.92,7.77,29.38,19.79,38.9,34.74c14.79,23.09,18.19,48.76,12.38,75.36l-0.28,0.04c0.87-2.7,1.14-6.05,1.47-8.9
			c1.61-14.02,0.65-27.85-3.64-41.33c-6.81-21.03-20.81-39-39.53-50.76c-3.46-2.21-7.18-4.05-10.82-5.94
			C788.03,452.26,788.5,451.17,789,450.09z"/>
		
			<linearGradient id="SVGID_00000046319267412792395300000018062421646416471439_" gradientUnits="userSpaceOnUse" x1="650.4891" y1="506.9628" x2="705.0648" y2="506.9628">
			<stop  offset="0" style="stop-color:#F8A16B"/>
			<stop  offset="0.7016" style="stop-color:#F05485"/>
			<stop  offset="1" style="stop-color:#EC3290"/>
		</linearGradient>
		<path style="fill:url(#SVGID_00000046319267412792395300000018062421646416471439_);" d="M704.88,452.47l0.19,0.15
			c-2.93,2.16-6.9,3.84-10.11,6.1c-13.74,9.65-25.25,22.37-32.44,37.63c-7.63,16.08-10.53,34-8.36,51.66
			c0.47,4.13,1.09,8.7,2.51,12.61c-1.08,0.17-2.1,0.51-3.15,0.83c-0.2-0.1-0.34-0.28-0.49-0.44c-4.33-15.98-2.81-36.43,2.42-52.1
			C663.81,483.88,681.31,464.21,704.88,452.47z"/>
		
			<linearGradient id="SVGID_00000079487048758145960930000009159861945563011255_" gradientUnits="userSpaceOnUse" x1="773.5869" y1="499.8688" x2="835.7601" y2="499.8688">
			<stop  offset="0" style="stop-color:#F8A16B"/>
			<stop  offset="0.7016" style="stop-color:#F05485"/>
			<stop  offset="1" style="stop-color:#EC3290"/>
		</linearGradient>
		<path style="fill:url(#SVGID_00000079487048758145960930000009159861945563011255_);" d="M774.72,452.11
			c15.24,4.48,30.02,15.41,40.17,27.41c11.96,14.17,19.19,31.72,20.66,50.21c0.44,5.97,0.15,11.9-0.36,17.86l-0.25,0.05
			c-0.06-4.21,0.35-8.42,0.2-12.66c-0.52-15.11-5.09-29.81-13.24-42.55c-9.17-14.6-22.49-26.13-38.25-33.12
			c-3.23-1.43-6.63-2.9-10.08-3.68C774.03,454.46,774.4,453.32,774.72,452.11z"/>
		
			<linearGradient id="SVGID_00000152953205859237764220000004654354015558227347_" gradientUnits="userSpaceOnUse" x1="657.868" y1="517.8732" x2="698.5128" y2="517.8732">
			<stop  offset="0" style="stop-color:#F8A16B"/>
			<stop  offset="0.7016" style="stop-color:#F05485"/>
			<stop  offset="1" style="stop-color:#EC3290"/>
		</linearGradient>
		<path style="fill:url(#SVGID_00000152953205859237764220000004654354015558227347_);" d="M698.36,464.54l0.15,0.11
			c-2.02,1.93-4.61,3.44-6.78,5.24c-4.94,4.17-9.41,8.86-13.34,13.99c-15.03,19.43-21.06,44.34-16.57,68.49
			c0.62,3.38,1.38,6.83,2.46,10.09c0.78,2.37,2.25,5,2.55,7.46c-0.78,0.42-1.57,0.78-2.39,1.13l-0.38,0.18l-0.42-0.17
			c-1.1-1.76-1.61-4.53-2.2-6.54c-4.1-14.13-4.69-29.05-1.7-43.46c3.42-16.85,12.24-33.38,24.58-45.43
			C688.61,471.41,693.37,467.84,698.36,464.54z"/>
		
			<linearGradient id="SVGID_00000170978223921678829500000007384354069418496128_" gradientUnits="userSpaceOnUse" x1="670.5664" y1="632.4371" x2="783.331" y2="632.4371">
			<stop  offset="0" style="stop-color:#F8A16B"/>
			<stop  offset="0.7016" style="stop-color:#F05485"/>
			<stop  offset="1" style="stop-color:#EC3290"/>
		</linearGradient>
		<path style="fill:url(#SVGID_00000170978223921678829500000007384354069418496128_);" d="M670.57,616.14
			c1.81,0.88,5.84,5.25,8.03,6.89c9.64,7.2,19.65,12.94,30.96,17.11c19.32,7.12,41.4,8.11,61.38,3.3c3.88-0.93,7.95-1.96,11.58-3.64
			l0.8,2.92c0.06,0.22-0.04,0.42-0.1,0.64c-1.46,0.89-3.62,1.27-5.29,1.71c-10.39,2.76-21.13,3.97-31.88,3.61
			C718.12,647.96,689.93,636.53,670.57,616.14z"/>
		
			<linearGradient id="SVGID_00000127009387005294863010000009368318014678058880_" gradientUnits="userSpaceOnUse" x1="761.074" y1="495.9005" x2="828.5325" y2="495.9005">
			<stop  offset="0" style="stop-color:#F8A16B"/>
			<stop  offset="0.7016" style="stop-color:#F05485"/>
			<stop  offset="1" style="stop-color:#EC3290"/>
		</linearGradient>
		<path style="fill:url(#SVGID_00000127009387005294863010000009368318014678058880_);" d="M761.46,456.2
			c20.49,4.34,37.44,14.41,50.3,31.06c8.69,11.35,14.25,24.77,16.16,38.93c0.41,3.04,0.86,6.35,0.47,9.41
			c-0.84-3.61-0.82-7.81-1.47-11.56c-2.08-11.36-6.62-22.13-13.31-31.54c-12.42-17.51-31.34-29.33-52.53-32.8
			C761.3,458.53,761.39,457.38,761.46,456.2z"/>
		
			<linearGradient id="SVGID_00000120559438145240509440000009362176358507694744_" gradientUnits="userSpaceOnUse" x1="684.7795" y1="630.3165" x2="791.1838" y2="630.3165">
			<stop  offset="0" style="stop-color:#F8A16B"/>
			<stop  offset="0.7016" style="stop-color:#F05485"/>
			<stop  offset="1" style="stop-color:#EC3290"/>
		</linearGradient>
		<path style="fill:url(#SVGID_00000120559438145240509440000009362176358507694744_);" d="M684.78,619.09
			c1.64,0.57,6.76,4.48,8.88,5.76c6.43,3.89,13.28,7.05,20.42,9.41c25.01,8.32,52.3,6.5,75.98-5.09c0.32,0.99,0.74,1.95,1.13,2.91
			c-0.04,0.28-0.03,0.37-0.23,0.58c-0.98,1.02-3.81,1.72-5.18,2.21c-11.48,4.26-23.61,6.52-35.85,6.67
			c-19.56,0.13-38.76-5.23-55.43-15.48C691.19,624.01,687.57,621.81,684.78,619.09z"/>
		
			<linearGradient id="SVGID_00000049186689168483395530000011026035823269566620_" gradientUnits="userSpaceOnUse" x1="665.1949" y1="527.6893" x2="694.2956" y2="527.6893">
			<stop  offset="0" style="stop-color:#F8A16B"/>
			<stop  offset="0.7016" style="stop-color:#F05485"/>
			<stop  offset="1" style="stop-color:#EC3290"/>
		</linearGradient>
		<path style="fill:url(#SVGID_00000049186689168483395530000011026035823269566620_);" d="M694.26,476.62
			c0.2,0.37-0.55,0.87-0.86,1.16c-3.03,2.92-5.88,5.8-8.5,9.1c-7.62,9.5-12.99,20.62-15.68,32.5c-4.25,18.88-1.35,41.02,9.12,57.51
			c-0.74,0.63-1.61,1.14-2.42,1.68c-0.14,0.1-0.41,0.14-0.58,0.19c-0.16-0.11-0.28-0.2-0.4-0.35c-1.36-1.79-2.28-4.52-3.15-6.61
			c-5.26-12.33-7.42-25.76-6.32-39.11C667.11,510.87,677.49,490.65,694.26,476.62z"/>
		
			<linearGradient id="SVGID_00000163775430741972382740000000259256574090719409_" gradientUnits="userSpaceOnUse" x1="747.4256" y1="493.1129" x2="820.0569" y2="493.1129">
			<stop  offset="0" style="stop-color:#F8A16B"/>
			<stop  offset="0.7016" style="stop-color:#F05485"/>
			<stop  offset="1" style="stop-color:#EC3290"/>
		</linearGradient>
		<path style="fill:url(#SVGID_00000163775430741972382740000000259256574090719409_);" d="M747.52,462.14
			c18.01,0.84,33.97,6.68,47.84,18.31c10.36,8.68,17.97,20.69,22.25,33.44c1.09,3.25,2.14,6.77,2.45,10.2
			c-1.28-3.05-1.8-6.55-2.91-9.7c-3.59-10.21-9.41-19.49-17.04-27.18c-14.21-14.37-32.63-21.4-52.68-21.5
			C747.58,464.49,747.59,463.36,747.52,462.14z"/>
		
			<linearGradient id="SVGID_00000012460647289019185070000013156933910812177850_" gradientUnits="userSpaceOnUse" x1="672.5058" y1="538.783" x2="691.5891" y2="538.783">
			<stop  offset="0" style="stop-color:#F8A16B"/>
			<stop  offset="0.7016" style="stop-color:#F05485"/>
			<stop  offset="1" style="stop-color:#EC3290"/>
		</linearGradient>
		<path style="fill:url(#SVGID_00000012460647289019185070000013156933910812177850_);" d="M689.52,491.83
			c0.07,0.69-2.05,3.3-2.57,4.06c-2.08,3.07-4.04,6.3-5.67,9.63c-3.93,8.03-6.12,17.18-6.83,26.05
			c-1.38,18.98,4.78,37.74,17.14,52.21l-2.01,1.84c-0.42,0.16-0.5,0.13-0.93,0.04c-1.68-1.45-2.9-3.56-4.11-5.41
			c-6.87-10.44-10.64-22.68-11.79-35.06C671.16,525.9,677.18,506.75,689.52,491.83z"/>
		
			<linearGradient id="SVGID_00000014621989266130216200000002701346123826770059_" gradientUnits="userSpaceOnUse" x1="700.1124" y1="626.369" x2="797.5005" y2="626.369">
			<stop  offset="0" style="stop-color:#F8A16B"/>
			<stop  offset="0.7016" style="stop-color:#F05485"/>
			<stop  offset="1" style="stop-color:#EC3290"/>
		</linearGradient>
		<path style="fill:url(#SVGID_00000014621989266130216200000002701346123826770059_);" d="M795.27,618.56l0.55,0.07
			c0.76,0.55,1.23,1.71,1.68,2.52c-5.63,3.88-14.25,7.09-20.84,9.05c-24.87,7.3-51.62,4.42-74.37-8c-0.77-0.44-1.47-0.92-2.18-1.45
			c1.85,0.32,5.48,2.63,7.43,3.48c3.78,1.67,7.65,3.1,11.61,4.28c19.83,5.95,41.08,5.13,60.4-2.31
			C785.05,624.08,790.1,621.35,795.27,618.56z"/>
		
			<linearGradient id="SVGID_00000173879548656287476590000011697973089201528485_" gradientUnits="userSpaceOnUse" x1="710.9048" y1="616.9122" x2="801.9135" y2="616.9122">
			<stop  offset="0" style="stop-color:#F8A16B"/>
			<stop  offset="0.7016" style="stop-color:#F05485"/>
			<stop  offset="1" style="stop-color:#EC3290"/>
		</linearGradient>
		<path style="fill:url(#SVGID_00000173879548656287476590000011697973089201528485_);" d="M799.5,606.94
			c0.81,0.53,1.72,2.07,2.41,2.85c-5.84,3.88-11.58,7.26-18.02,10.04c-17.47,7.32-36.78,8.99-55.24,4.78
			c-5.17-1.21-10.14-3.01-15.06-4.97c-0.94-0.4-1.83-0.79-2.68-1.37l0.54,0.09l-0.02,0.31l0.38,0.22l0.01-0.4
			c7.72,2.92,14.94,5.11,23.14,6.21C758.31,627.84,780.88,621.14,799.5,606.94z"/>
		
			<linearGradient id="SVGID_00000040543596016225542290000016176541127884314008_" gradientUnits="userSpaceOnUse" x1="720.4839" y1="607.725" x2="804.2072" y2="607.725">
			<stop  offset="0" style="stop-color:#F8A16B"/>
			<stop  offset="0.7016" style="stop-color:#F05485"/>
			<stop  offset="1" style="stop-color:#EC3290"/>
		</linearGradient>
		<path style="fill:url(#SVGID_00000040543596016225542290000016176541127884314008_);" d="M801.58,595.85
			c0.98,0.32,1.98,1.87,2.63,2.66c-5.74,4.73-11.46,8.95-18.17,12.27c-19.31,9.54-42.33,11.69-62.84,4.74
			c-0.97-0.3-1.82-0.65-2.71-1.13c7.55,2.43,15.4,3.78,23.32,4.02C765.82,619.17,785.65,610.73,801.58,595.85z"/>
		
			<linearGradient id="SVGID_00000030486130316782890780000001103432656723091101_" gradientUnits="userSpaceOnUse" x1="733.6544" y1="597.9" x2="806.4249" y2="597.9">
			<stop  offset="0" style="stop-color:#F8A16B"/>
			<stop  offset="0.7016" style="stop-color:#F05485"/>
			<stop  offset="1" style="stop-color:#EC3290"/>
		</linearGradient>
		<path style="fill:url(#SVGID_00000030486130316782890780000001103432656723091101_);" d="M803.36,583.55
			c1.07,0.47,2.13,1.51,3.06,2.23c-4.87,5.25-9.99,10.02-15.99,13.96c-13.8,9.13-30.22,13.47-46.73,12.34
			c-2.23-0.17-4.53-0.3-6.72-0.75c-0.7-0.13-2.75-0.76-3.31-0.5l-0.01-0.35c0.21,0.02,0.41,0.03,0.62,0.1
			c1.26,0.4,2.74,0.34,4.05,0.44c5.2,0.42,10.03,0.6,15.26,0.07C773.77,609.02,790.65,599.15,803.36,583.55z"/>
	</g>
	<g>
		<g>
			<path class="st76" d="M222.37,644.23l0.4-0.79c18.86-3.37,27.7-12.21,27.7-17.87c-0.3-3.97-3.38-11.32-7.15-18.07l5.76-6.05h0.79
				c4.27,7.74,7.15,16.58,7.15,22.33c0,3.28-0.89,6.85-2.68,10.12c-3.87,7.15-14.19,13.6-27.79,16.08L222.37,644.23z"/>
			<path class="st76" d="M269.42,632.62v-66.11l7.24-1.89l0.5,0.4l-0.1,66.41l-7.05,1.49L269.42,632.62z"/>
			<path class="st76" d="M568.2,564.73l-6.94,1.77v48.44c0,3.59-0.29,6.07-0.71,7.86c-2.48,1.79-6.04,1.87-9.31,1.87h-0.21
				c-6.06,0-7.83-1.37-11.52-8.83c-3.85-8.04-7.04-15.37-14.58-15.37c-9.23,0-13.9,12-17.67,18.06c-3.19,4.96-4.67,6.14-8.73,6.14
				l-0.03,0.11H333.06c-0.47-0.05-1-0.11-1.61-0.11c-5.14,0-7.15-1.58-11-9.52c-1.4-2.87-8.65-18.75-11.42-25.03h-0.79l-5.88,6.17
				c3.98,6.86,11.42,21.33,13.11,24.71l0.32,0.5c-3.38,2.37-10.23,3.56-16.3,3.56c-2.27,0-7.65-0.29-10.81-0.98l-0.5,0.4l-1.08,7.25
				c3.77,0.9,9.62,1.19,11.5,1.19c9.73,0,16.69-1.9,20.36-5.78c2.77,4.09,5.85,5.27,10.52,5.27h166.97c0.32,0,0.61,0,0.9-0.03
				c7.38-0.05,10.26-1.27,14.19-6.33c6.36,4.56,14,7.54,19.75,7.54c3.96,0,6.25-1.48,7.75-4.46c2.66,2.27,5.85,3.27,10.02,3.27
				c0.05,0,0.13,0,0.18-0.03v0.03c12.21,0,19.75-3.77,19.75-18.35v-49.05L568.2,564.73z M529.49,625.96
				c-3.48,0-9.41-2.48-14.48-5.85c2.87-5.75,6.14-11.89,9.7-11.89c2.58,0,5.17,3.67,9.26,13.47c0.29,0.61,0.47,1.21,0.79,1.79
				C533.65,625.17,532.07,625.96,529.49,625.96z"/>
			<path class="st76" d="M581.9,632.62v-66.11l7.24-1.89l0.5,0.4l-0.1,66.41l-7.05,1.49L581.9,632.62z"/>
		</g>
		<g>
			<path class="st76" d="M259.38,463.2c-10.41,0-18.64,3.68-24.46,10.95c-5.68,7.09-8.56,17.66-8.56,31.42
				c0,13.77,2.88,24.34,8.56,31.42c5.82,7.27,14.05,10.95,24.46,10.95c10.41,0,18.64-3.68,24.46-10.95
				c5.68-7.09,8.56-17.66,8.56-31.42c0-13.76-2.88-24.33-8.56-31.42C278.01,466.89,269.78,463.2,259.38,463.2z M276.34,531.63
				c-4.17,4.99-9.72,7.42-16.96,7.42c-7.25,0-12.8-2.43-16.97-7.42c-4.23-5.06-6.38-12.71-6.38-22.74v-6.61
				c0-10.03,2.15-17.68,6.38-22.75c4.17-4.99,9.72-7.42,16.97-7.42c7.24,0,12.79,2.43,16.96,7.42c4.23,5.07,6.38,12.72,6.38,22.75
				v6.61C282.71,518.91,280.57,526.56,276.34,531.63z"/>
			<path class="st76" d="M369.75,504.64c3.52-4.14,5.31-9.72,5.31-16.57c0-7.09-1.91-12.83-5.68-17.05
				c-3.84-4.31-9.45-6.49-16.66-6.49h-32.47v82.11h9.35v-34.89h18.51l20.03,34.89h10.73l-20.64-35.61
				C363.06,510.1,366.93,507.96,369.75,504.64z M329.6,473.43h23.12c2.2,0,4.12,0.34,5.69,1c1.56,0.66,2.87,1.54,3.9,2.62
				c1.03,1.08,1.77,2.33,2.28,3.8c0.53,1.56,0.8,3.19,0.8,4.86v4.83c0,1.67-0.27,3.3-0.79,4.85c-0.51,1.48-1.25,2.73-2.28,3.81
				c-1.03,1.08-2.34,1.96-3.9,2.62c-1.57,0.66-3.49,1-5.69,1H329.6V473.43z"/>
			<path class="st76" d="M448.9,502.89c1.33-1,2.54-2.19,3.61-3.57c2.44-3.17,3.69-7.63,3.69-13.26c0-6.76-1.84-12.09-5.47-15.84
				c-3.66-3.78-8.78-5.69-15.21-5.69h-31.37v82.11h33.46c6.94,0,12.4-2.25,16.25-6.7c3.75-4.34,5.65-10.09,5.65-17.11
				c0-6.33-1.54-11.41-4.57-15.08C453.22,505.69,451.21,504.07,448.9,502.89z M445.9,479.82c0.48,1.31,0.72,2.74,0.72,4.25v4.39
				c0,1.51-0.24,2.94-0.72,4.25c-0.46,1.27-1.13,2.34-2.05,3.29c-0.92,0.94-2.1,1.72-3.53,2.31c-1.43,0.59-3.16,0.89-5.15,0.89
				h-21.69v-25.77h21.69c2,0,3.75,0.29,5.19,0.86c1.4,0.55,2.58,1.31,3.48,2.24C444.76,477.47,445.44,478.55,445.9,479.82z
				 M413.48,508.11h23.45c2.28,0,4.25,0.34,5.87,1.01c1.59,0.66,2.94,1.56,4,2.68c1.06,1.12,1.83,2.4,2.33,3.92
				c0.53,1.59,0.8,3.29,0.8,5.06v4.4c0,1.76-0.27,3.43-0.8,4.99c-0.5,1.48-1.27,2.75-2.33,3.88c-1.06,1.12-2.41,2.02-4,2.68
				c-1.61,0.67-3.58,1.01-5.87,1.01h-23.45V508.11z"/>
			<polygon class="st76" points="482.95,473.21 494.5,473.21 494.5,537.95 482.95,537.95 482.95,546.63 515.41,546.63 
				515.41,537.95 503.85,537.95 503.85,473.21 515.41,473.21 515.41,464.53 482.95,464.53 			"/>
			<polygon class="st76" points="533.47,464.53 533.47,473.43 560.44,473.43 560.44,546.63 569.79,546.63 569.79,473.43 
				596.75,473.43 596.75,464.53 			"/>
		</g>
	</g>
</g>
</svg>
