<?xml version="1.0" encoding="utf-8"?>
<!-- Generator: Adobe Illustrator 28.1.0, SVG Export Plug-In . SVG Version: 6.00 Build 0)  -->
<svg version="1.1" id="Layer_1" xmlns="http://www.w3.org/2000/svg" xmlns:xlink="http://www.w3.org/1999/xlink" x="0px" y="0px"
	 viewBox="0 0 1080 1080" style="enable-background:new 0 0 1080 1080;" xml:space="preserve">
<style type="text/css">
	.st0{display:none;}
	.st1{display:inline;opacity:0.03;fill:#161616;}
	.st2{fill:url(#SVGID_1_);}
	.st3{fill:url(#SVGID_00000078766858249959858460000017291668356644948134_);}
	.st4{fill:url(#SVGID_00000080193212516900295410000014071234521234890889_);}
	.st5{fill:url(#SVGID_00000065758840768116240150000014473652450753758369_);}
	.st6{fill:url(#SVGID_00000004548041923321469830000015510127839317602213_);}
	.st7{fill:url(#SVGID_00000121973181525569065780000017778490297771348373_);}
	.st8{fill:url(#SVGID_00000078755573996810162040000018058512788676095886_);}
	.st9{fill:url(#SVGID_00000159467657006689767110000008676484661503335839_);}
	.st10{fill:url(#SVGID_00000018225719349699752820000017439947123499995787_);}
	.st11{fill:url(#SVGID_00000080904694041436012310000006324342994660763565_);}
	.st12{fill:url(#SVGID_00000026126606432812778500000008563678360159755150_);}
	.st13{fill:url(#SVGID_00000003789468066797817160000015891327814623250072_);}
	.st14{fill:url(#SVGID_00000021095156925773033990000006950096475847465126_);}
	.st15{fill:url(#SVGID_00000026136754274055677080000014677354044743819697_);}
	.st16{fill:url(#SVGID_00000045617840155333872190000005903879427883557555_);}
	.st17{fill:url(#SVGID_00000058584555680660909470000002852171596934197693_);}
	.st18{fill:url(#SVGID_00000075141863395977151340000017451334464491461808_);}
	.st19{fill:url(#SVGID_00000064335214437369356000000014135010249464770212_);}
	.st20{fill:#606161;}
	.st21{display:inline;}
	.st22{fill:url(#SVGID_00000031204717251535309210000012858496448395094179_);}
	.st23{fill:url(#SVGID_00000080910890393121351160000017241551957878644362_);}
	.st24{fill:url(#SVGID_00000156559208222257515160000013297578580807019650_);}
	.st25{fill:url(#SVGID_00000147183698950012864360000000914643558214446512_);}
	.st26{fill:url(#SVGID_00000030477419476304007450000001169718045899653296_);}
	.st27{fill:url(#SVGID_00000145033958293411778130000008342328159197974450_);}
	.st28{fill:url(#SVGID_00000054251269873593219880000004407523627728481921_);}
	.st29{fill:url(#SVGID_00000036252244685323385660000011807409126233704859_);}
	.st30{fill:url(#SVGID_00000137842871941412742340000012076058587863369892_);}
	.st31{fill:url(#SVGID_00000099632430647327239020000000203438969488535970_);}
	.st32{fill:url(#SVGID_00000007408590755919285510000002610414904381232523_);}
	.st33{fill:url(#SVGID_00000173132172921385259010000011961099318248265394_);}
	.st34{fill:url(#SVGID_00000023995538898406517080000010355190608430996389_);}
	.st35{fill:url(#SVGID_00000080892226541896209190000017150385880531479996_);}
	.st36{fill:url(#SVGID_00000122719145902427030070000005533228657578724238_);}
	.st37{fill:url(#SVGID_00000124161990556134495100000010870155592975636619_);}
	.st38{fill:url(#SVGID_00000039101978268859345670000007231569199633285030_);}
	.st39{fill:url(#SVGID_00000026869759919831623960000012293838071097524109_);}
	.st40{fill:url(#SVGID_00000037685943500495127560000013656684362549176471_);}
	.st41{fill:url(#SVGID_00000133521953727508853100000007944471533528209833_);}
	.st42{fill:url(#SVGID_00000126294893868453968570000012875466210090755978_);}
	.st43{fill:url(#SVGID_00000051385599554664144360000001320865901546639545_);}
	.st44{fill:url(#SVGID_00000158028957652054172600000018046636124385112975_);}
	.st45{fill:url(#SVGID_00000044891639826991312940000010064370285006469769_);}
	.st46{fill:url(#SVGID_00000057855552028378460360000004024539973374605447_);}
	.st47{fill:url(#SVGID_00000161612814813813356460000006474387017468491148_);}
	.st48{fill:url(#SVGID_00000173119273331789800810000002321875576440842892_);}
	.st49{fill:url(#SVGID_00000116234573427544465310000001156414278749510071_);}
	.st50{fill:url(#SVGID_00000053537944431332351050000008404662548840043393_);}
	.st51{fill:url(#SVGID_00000085225632404843848970000014891927617119865505_);}
	.st52{fill:url(#SVGID_00000173851467931816163250000010052881287715252159_);}
	.st53{fill:url(#SVGID_00000009566220987225270890000014532417977525257626_);}
	.st54{fill:url(#SVGID_00000028297289569427039900000003049299020804927165_);}
	.st55{fill:url(#SVGID_00000001654927355970807070000001597132854411302576_);}
	.st56{fill:url(#SVGID_00000158712265103371724390000001288029567331184575_);}
	.st57{fill:url(#SVGID_00000173127024494744471040000007875350645366358153_);}
	.st58{fill:url(#SVGID_00000052070995061767067910000010991519338390567350_);}
	.st59{fill:url(#SVGID_00000116916085963796627010000002766260110160824228_);}
	.st60{fill:url(#SVGID_00000030459346389741193380000007677060833873272749_);}
	.st61{fill:url(#SVGID_00000011749459270147447190000016603077223487655076_);}
	.st62{fill:url(#SVGID_00000091728658321273974210000012116454446835896483_);}
	.st63{fill:url(#SVGID_00000080897729268821469770000010215300278276962450_);}
	.st64{fill:url(#SVGID_00000168828970077846767680000002393244645054189987_);}
	.st65{fill:url(#SVGID_00000121980221954174054650000016943546029778573491_);}
	.st66{fill:url(#SVGID_00000017513702140460759020000001761150039177431704_);}
	.st67{fill:url(#SVGID_00000042002839567514416250000010098917633443541156_);}
	.st68{fill:url(#SVGID_00000177456055608750244880000013934590843170170809_);}
	.st69{fill:url(#SVGID_00000160175586006223137450000000502496952906782344_);}
	.st70{fill:url(#SVGID_00000144327742156830555550000011704823877544058782_);}
	.st71{fill:url(#SVGID_00000136385011556248287470000002139612032566744240_);}
	.st72{fill:url(#SVGID_00000049194382608661111130000000012154074633254323_);}
	.st73{fill:url(#SVGID_00000111905622446927705640000010000780927112357800_);}
	.st74{fill:url(#SVGID_00000163030890142730958590000003429706692718260354_);}
	.st75{fill:url(#SVGID_00000134965249794576240330000000704439813086672019_);}
	.st76{fill:#FFFFFF;}
	.st77{fill:url(#SVGID_00000119103600566622640620000004758636033232089737_);}
	.st78{fill:url(#SVGID_00000034773663152072249800000004853732502245094050_);}
	.st79{fill:url(#SVGID_00000106111682520116842660000016141425453201132420_);}
	.st80{fill:url(#SVGID_00000085228243282988695410000004766815331682838182_);}
	.st81{fill:url(#SVGID_00000134929955347991258230000010999079855997706665_);}
	.st82{fill:url(#SVGID_00000008118111684474969980000013834748408242805929_);}
	.st83{fill:url(#SVGID_00000096043882787743535560000012408975917406931876_);}
	.st84{fill:url(#SVGID_00000083071947746955162510000006080599105299155117_);}
	.st85{fill:url(#SVGID_00000068668094897268828070000018294219331761918593_);}
	.st86{fill:url(#SVGID_00000058573040620410855220000018434525253926674346_);}
	.st87{fill:url(#SVGID_00000049941173503060498550000006626186812854229406_);}
	.st88{fill:url(#SVGID_00000069378543969106565460000015671714806152503485_);}
	.st89{fill:url(#SVGID_00000140702448047405363060000014656323718387257255_);}
	.st90{fill:url(#SVGID_00000078007714660989515470000007147577257084026002_);}
	.st91{fill:url(#SVGID_00000093885551172953260850000017108713098761174658_);}
	.st92{fill:url(#SVGID_00000181077575247922302530000007513977395275784342_);}
	.st93{fill:url(#SVGID_00000177474508390794595550000000270707518731101319_);}
	.st94{fill:url(#SVGID_00000087394500239144656130000001253202475163819145_);}
</style>
<g class="st0">
	<rect class="st1" width="1080" height="1080"/>
</g>
<g class="st0">
	<g class="st21">
		<linearGradient id="SVGID_1_" gradientUnits="userSpaceOnUse" x1="855.9902" y1="516.6215" x2="909.9881" y2="516.6215">
			<stop  offset="0" style="stop-color:#F8A16B"/>
			<stop  offset="0.7016" style="stop-color:#F05485"/>
			<stop  offset="1" style="stop-color:#EC3290"/>
		</linearGradient>
		<path class="st2" d="M859.13,424.02c0.1,0.02,0.29,0.06,0.4,0.1c1.65,0.74,5.96,5.54,7.59,7.21
			c16.89,17.21,29.37,38.24,36.38,61.32c11.05,36.47,8.16,78.32-9.97,112.14c-0.55,1.02-1.87,4.14-2.84,4.43
			c15.27-28.61,20.75-61.43,15.62-93.44c-4.82-29.34-18.52-56.5-39.25-77.81c-3.46-3.52-7.06-7.31-11.07-10.2
			C856.96,426.46,858.06,425.25,859.13,424.02z"/>
		
			<linearGradient id="SVGID_00000067939659335457298660000014541176011605710726_" gradientUnits="userSpaceOnUse" x1="610.3005" y1="463.3634" x2="735.6906" y2="463.3634">
			<stop  offset="0" style="stop-color:#F8A16B"/>
			<stop  offset="0.7016" style="stop-color:#F05485"/>
			<stop  offset="1" style="stop-color:#EC3290"/>
		</linearGradient>
		<path style="fill:url(#SVGID_00000067939659335457298660000014541176011605710726_);" d="M735.38,392.19l0.31,0.02
			c-28.72,5.42-55.23,19.13-76.26,39.43c-27.75,27.12-43.68,64.09-44.33,102.89l-4.22-0.05l-0.5-0.39
			c-0.02-0.24-0.04-0.48-0.05-0.72c-0.2-4.63,1.02-11.31,1.72-15.97c4.63-30.91,18.67-58.34,39.78-81.19
			c17.74-19.2,41.66-32.94,66.59-40.36C723.77,394.25,729.79,392.41,735.38,392.19z"/>
		
			<linearGradient id="SVGID_00000034059394322673246350000007662996120561802658_" gradientUnits="userSpaceOnUse" x1="835.2817" y1="504.0016" x2="900.2002" y2="504.0016">
			<stop  offset="0" style="stop-color:#F8A16B"/>
			<stop  offset="0.7016" style="stop-color:#F05485"/>
			<stop  offset="1" style="stop-color:#EC3290"/>
		</linearGradient>
		<path style="fill:url(#SVGID_00000034059394322673246350000007662996120561802658_);" d="M838.02,419.89
			c4.02,2.25,7.88,5.66,11.43,8.61c18.67,15.45,33.01,35.5,41.59,58.17c9.48,24.93,11.66,52.05,6.28,78.17
			c-1.57,7.85-3.78,15.95-7.06,23.27l-0.19-0.2c8.4-25.74,11.23-47.12,6.32-73.94c-5.29-27.94-19.17-53.52-39.72-73.17
			c-6.63-6.28-13.88-11.6-21.38-16.78C836.07,422.57,837.07,421.24,838.02,419.89z"/>
		
			<linearGradient id="SVGID_00000062882012872115408030000007824010097744754080_" gradientUnits="userSpaceOnUse" x1="620.4357" y1="479.8404" x2="718.244" y2="479.8404">
			<stop  offset="0" style="stop-color:#F8A16B"/>
			<stop  offset="0.7016" style="stop-color:#F05485"/>
			<stop  offset="1" style="stop-color:#EC3290"/>
		</linearGradient>
		<path style="fill:url(#SVGID_00000062882012872115408030000007824010097744754080_);" d="M718.03,406.35l0.21-0.01
			c-0.06,0.33-3.52,1.39-4.1,1.6c-12.28,4.33-24.23,11.26-34.67,19.01c-30.55,22.82-50.19,57.37-54.15,95.3
			c-0.5,5.12-0.91,10.51-0.7,15.65c0.18,4.51,1.32,10.43,0.68,14.78c-0.93,0.6-2.41,0.51-3.51,0.57l-0.79,0.09l-0.34-0.55
			c-1.3-31.56,2.9-57.97,19.73-85.38c14.92-24.31,36.37-43.92,62.57-55.45C707.8,409.83,712.88,407.58,718.03,406.35z"/>
		
			<linearGradient id="SVGID_00000137120498487980415140000010941841202114370980_" gradientUnits="userSpaceOnUse" x1="815.1698" y1="493.7639" x2="890.1664" y2="493.7639">
			<stop  offset="0" style="stop-color:#F8A16B"/>
			<stop  offset="0.7016" style="stop-color:#F05485"/>
			<stop  offset="1" style="stop-color:#EC3290"/>
		</linearGradient>
		<path style="fill:url(#SVGID_00000137120498487980415140000010941841202114370980_);" d="M817.23,419.34
			c21.52,10.5,39.71,26.75,52.58,46.95c19.99,31.21,24.58,65.9,16.73,101.85l-0.38,0.06c1.17-3.64,1.54-8.18,1.98-12.03
			c2.18-18.95,0.88-37.64-4.92-55.86c-9.21-28.43-28.12-52.71-53.43-68.6c-4.68-2.99-9.7-5.47-14.63-8.03
			C815.92,422.26,816.56,420.79,817.23,419.34z"/>
		
			<linearGradient id="SVGID_00000158012969416891069660000010683375123017614750_" gradientUnits="userSpaceOnUse" x1="630.0264" y1="496.1972" x2="703.7875" y2="496.1972">
			<stop  offset="0" style="stop-color:#F8A16B"/>
			<stop  offset="0.7016" style="stop-color:#F05485"/>
			<stop  offset="1" style="stop-color:#EC3290"/>
		</linearGradient>
		<path style="fill:url(#SVGID_00000158012969416891069660000010683375123017614750_);" d="M703.53,422.54l0.25,0.21
			c-3.96,2.92-9.32,5.19-13.67,8.24c-18.57,13.04-34.13,30.23-43.85,50.86c-10.31,21.73-14.23,45.95-11.3,69.83
			c0.64,5.59,1.48,11.76,3.39,17.05c-1.46,0.24-2.84,0.69-4.25,1.13c-0.28-0.13-0.46-0.37-0.67-0.59
			c-5.85-21.6-3.8-49.24,3.28-70.41C648.04,465,671.68,438.42,703.53,422.54z"/>
		
			<linearGradient id="SVGID_00000037689048612187811590000000408472357432345482_" gradientUnits="userSpaceOnUse" x1="796.3976" y1="486.6094" x2="880.4271" y2="486.6094">
			<stop  offset="0" style="stop-color:#F8A16B"/>
			<stop  offset="0.7016" style="stop-color:#F05485"/>
			<stop  offset="1" style="stop-color:#EC3290"/>
		</linearGradient>
		<path style="fill:url(#SVGID_00000037689048612187811590000000408472357432345482_);" d="M797.93,422.06
			c20.6,6.05,40.57,20.82,54.29,37.04c16.17,19.15,25.93,42.88,27.92,67.86c0.59,8.07,0.2,16.09-0.48,24.14l-0.33,0.06
			c-0.08-5.69,0.48-11.39,0.27-17.1c-0.7-20.43-6.88-40.29-17.89-57.5c-12.4-19.73-30.39-35.31-51.69-44.77
			c-4.36-1.94-8.96-3.92-13.62-4.97C796.99,425.24,797.5,423.69,797.93,422.06z"/>
		
			<linearGradient id="SVGID_00000091726253066955522260000013498128256301583755_" gradientUnits="userSpaceOnUse" x1="639.9993" y1="510.9429" x2="694.9322" y2="510.9429">
			<stop  offset="0" style="stop-color:#F8A16B"/>
			<stop  offset="0.7016" style="stop-color:#F05485"/>
			<stop  offset="1" style="stop-color:#EC3290"/>
		</linearGradient>
		<path style="fill:url(#SVGID_00000091726253066955522260000013498128256301583755_);" d="M694.73,438.85l0.2,0.14
			c-2.73,2.61-6.23,4.65-9.16,7.08c-6.68,5.63-12.72,11.97-18.03,18.9c-20.31,26.26-28.46,59.93-22.4,92.57
			c0.84,4.57,1.87,9.22,3.33,13.64c1.06,3.2,3.03,6.76,3.44,10.08c-1.06,0.57-2.12,1.06-3.23,1.52l-0.51,0.24l-0.56-0.23
			c-1.48-2.38-2.18-6.13-2.97-8.84c-5.54-19.1-6.33-39.27-2.3-58.74c4.63-22.77,16.54-45.12,33.21-61.4
			C681.55,448.15,687.98,443.32,694.73,438.85z"/>
		
			<linearGradient id="SVGID_00000026878030240010605030000016048051906882425991_" gradientUnits="userSpaceOnUse" x1="657.1616" y1="665.7803" x2="809.5671" y2="665.7803">
			<stop  offset="0" style="stop-color:#F8A16B"/>
			<stop  offset="0.7016" style="stop-color:#F05485"/>
			<stop  offset="1" style="stop-color:#EC3290"/>
		</linearGradient>
		<path style="fill:url(#SVGID_00000026878030240010605030000016048051906882425991_);" d="M657.16,643.75
			c2.44,1.2,7.89,7.1,10.85,9.31c13.03,9.73,26.56,17.49,41.85,23.12c26.12,9.63,55.96,10.95,82.96,4.45
			c5.25-1.26,10.74-2.65,15.65-4.92l1.08,3.95c0.08,0.29-0.06,0.57-0.13,0.87c-1.98,1.2-4.9,1.72-7.15,2.32
			c-14.05,3.72-28.56,5.37-43.09,4.87C721.43,686.76,683.33,671.31,657.16,643.75z"/>
		
			<linearGradient id="SVGID_00000003824255926747172950000013428021095706509229_" gradientUnits="userSpaceOnUse" x1="779.4861" y1="481.246" x2="870.6587" y2="481.246">
			<stop  offset="0" style="stop-color:#F8A16B"/>
			<stop  offset="0.7016" style="stop-color:#F05485"/>
			<stop  offset="1" style="stop-color:#EC3290"/>
		</linearGradient>
		<path style="fill:url(#SVGID_00000003824255926747172950000013428021095706509229_);" d="M780,427.59
			c27.69,5.86,50.6,19.47,67.98,41.98c11.74,15.34,19.27,33.48,21.83,52.62c0.56,4.12,1.17,8.58,0.64,12.72
			c-1.14-4.88-1.1-10.56-1.98-15.62c-2.81-15.35-8.95-29.91-17.99-42.63c-16.79-23.67-42.36-39.63-70.99-44.33
			C779.78,430.74,779.91,429.19,780,427.59z"/>
		
			<linearGradient id="SVGID_00000011735533422922998250000008536174217378059962_" gradientUnits="userSpaceOnUse" x1="676.3712" y1="662.9142" x2="820.1805" y2="662.9142">
			<stop  offset="0" style="stop-color:#F8A16B"/>
			<stop  offset="0.7016" style="stop-color:#F05485"/>
			<stop  offset="1" style="stop-color:#EC3290"/>
		</linearGradient>
		<path style="fill:url(#SVGID_00000011735533422922998250000008536174217378059962_);" d="M676.37,647.75
			c2.22,0.77,9.13,6.06,11.99,7.78c8.69,5.26,17.95,9.53,27.59,12.71c33.81,11.25,70.68,8.78,102.69-6.88
			c0.43,1.34,1,2.64,1.53,3.94c-0.06,0.37-0.04,0.51-0.3,0.78c-1.32,1.37-5.15,2.32-7,2.99c-15.51,5.76-31.91,8.81-48.45,9.01
			c-26.44,0.17-52.39-7.07-74.91-20.92C685.03,654.4,680.14,651.42,676.37,647.75z"/>
		
			<linearGradient id="SVGID_00000057139353133405378980000000149301918033786012_" gradientUnits="userSpaceOnUse" x1="649.9019" y1="524.2097" x2="689.2325" y2="524.2097">
			<stop  offset="0" style="stop-color:#F8A16B"/>
			<stop  offset="0.7016" style="stop-color:#F05485"/>
			<stop  offset="1" style="stop-color:#EC3290"/>
		</linearGradient>
		<path style="fill:url(#SVGID_00000057139353133405378980000000149301918033786012_);" d="M689.19,455.19
			c0.27,0.5-0.74,1.17-1.16,1.57c-4.1,3.94-7.95,7.84-11.48,12.29c-10.3,12.84-17.55,27.86-21.19,43.92
			c-5.74,25.52-1.82,55.44,12.32,77.73c-1,0.85-2.18,1.55-3.27,2.28c-0.19,0.13-0.56,0.19-0.78,0.26c-0.22-0.15-0.38-0.26-0.54-0.48
			c-1.84-2.41-3.08-6.11-4.26-8.93c-7.1-16.67-10.04-34.81-8.54-52.86C652.49,501.48,666.52,474.15,689.19,455.19z"/>
		
			<linearGradient id="SVGID_00000053517386650308871700000000772084033046268577_" gradientUnits="userSpaceOnUse" x1="761.0396" y1="477.4785" x2="859.2036" y2="477.4785">
			<stop  offset="0" style="stop-color:#F8A16B"/>
			<stop  offset="0.7016" style="stop-color:#F05485"/>
			<stop  offset="1" style="stop-color:#EC3290"/>
		</linearGradient>
		<path style="fill:url(#SVGID_00000053517386650308871700000000772084033046268577_);" d="M761.17,435.61
			c24.34,1.13,45.92,9.03,64.66,24.74c14,11.74,24.29,27.96,30.07,45.2c1.47,4.4,2.9,9.15,3.31,13.79
			c-1.72-4.12-2.44-8.86-3.94-13.11c-4.85-13.8-12.72-26.35-23.02-36.73c-19.21-19.42-44.1-28.92-71.2-29.05
			C761.25,438.79,761.26,437.27,761.17,435.61z"/>
		
			<linearGradient id="SVGID_00000136412838227776416470000005627082436344211353_" gradientUnits="userSpaceOnUse" x1="659.7828" y1="539.2034" x2="685.5745" y2="539.2034">
			<stop  offset="0" style="stop-color:#F8A16B"/>
			<stop  offset="0.7016" style="stop-color:#F05485"/>
			<stop  offset="1" style="stop-color:#EC3290"/>
		</linearGradient>
		<path style="fill:url(#SVGID_00000136412838227776416470000005627082436344211353_);" d="M682.78,475.74
			c0.1,0.93-2.77,4.46-3.47,5.49c-2.82,4.15-5.46,8.51-7.67,13.02c-5.31,10.86-8.27,23.22-9.23,35.21
			c-1.86,25.65,6.46,51,23.16,70.56l-2.71,2.49c-0.57,0.21-0.68,0.17-1.25,0.06c-2.27-1.96-3.92-4.81-5.56-7.31
			c-9.29-14.11-14.39-30.65-15.93-47.39C657.97,521.8,666.1,495.91,682.78,475.74z"/>
		
			<linearGradient id="SVGID_00000151528826967553453460000009465458024138254767_" gradientUnits="userSpaceOnUse" x1="697.0941" y1="657.579" x2="828.7178" y2="657.579">
			<stop  offset="0" style="stop-color:#F8A16B"/>
			<stop  offset="0.7016" style="stop-color:#F05485"/>
			<stop  offset="1" style="stop-color:#EC3290"/>
		</linearGradient>
		<path style="fill:url(#SVGID_00000151528826967553453460000009465458024138254767_);" d="M825.71,647.03l0.74,0.1
			c1.03,0.75,1.66,2.31,2.27,3.41c-7.6,5.25-19.27,9.58-28.16,12.24c-33.61,9.87-69.77,5.98-100.52-10.81
			c-1.04-0.6-1.99-1.24-2.95-1.96c2.5,0.44,7.41,3.55,10.05,4.7c5.1,2.26,10.34,4.19,15.69,5.78c26.8,8.04,55.52,6.94,81.63-3.12
			C811.88,654.49,818.71,650.8,825.71,647.03z"/>
		
			<linearGradient id="SVGID_00000084501152356433560990000006759083118922659754_" gradientUnits="userSpaceOnUse" x1="711.6805" y1="644.7979" x2="834.682" y2="644.7979">
			<stop  offset="0" style="stop-color:#F8A16B"/>
			<stop  offset="0.7016" style="stop-color:#F05485"/>
			<stop  offset="1" style="stop-color:#EC3290"/>
		</linearGradient>
		<path style="fill:url(#SVGID_00000084501152356433560990000006759083118922659754_);" d="M831.42,631.32
			c1.1,0.72,2.32,2.79,3.26,3.86c-7.89,5.24-15.65,9.82-24.35,13.57c-23.61,9.89-49.71,12.15-74.67,6.47
			c-6.99-1.63-13.71-4.06-20.36-6.72c-1.26-0.55-2.48-1.07-3.62-1.85l0.73,0.13l-0.03,0.41l0.51,0.29l0.01-0.54
			c10.44,3.95,20.19,6.91,31.27,8.4C775.75,659.57,806.25,650.51,831.42,631.32z"/>
		
			<linearGradient id="SVGID_00000054966660891842371160000014291356401108355469_" gradientUnits="userSpaceOnUse" x1="724.627" y1="632.3811" x2="837.7821" y2="632.3811">
			<stop  offset="0" style="stop-color:#F8A16B"/>
			<stop  offset="0.7016" style="stop-color:#F05485"/>
			<stop  offset="1" style="stop-color:#EC3290"/>
		</linearGradient>
		<path style="fill:url(#SVGID_00000054966660891842371160000014291356401108355469_);" d="M834.23,616.33
			c1.32,0.43,2.68,2.53,3.55,3.6c-7.76,6.39-15.49,12.1-24.56,16.58c-26.09,12.89-57.2,15.79-84.93,6.4
			c-1.3-0.4-2.46-0.88-3.66-1.53c10.2,3.28,20.81,5.11,31.52,5.43C785.9,647.85,812.7,636.44,834.23,616.33z"/>
		
			<linearGradient id="SVGID_00000151542047537546618190000002292980655523201681_" gradientUnits="userSpaceOnUse" x1="742.4274" y1="619.1022" x2="840.7794" y2="619.1022">
			<stop  offset="0" style="stop-color:#F8A16B"/>
			<stop  offset="0.7016" style="stop-color:#F05485"/>
			<stop  offset="1" style="stop-color:#EC3290"/>
		</linearGradient>
		<path style="fill:url(#SVGID_00000151542047537546618190000002292980655523201681_);" d="M836.64,599.71
			c1.45,0.64,2.88,2.04,4.14,3.01c-6.58,7.1-13.51,13.55-21.62,18.87c-18.65,12.34-40.85,18.2-63.16,16.67
			c-3.01-0.24-6.13-0.4-9.08-1.02c-0.94-0.17-3.72-1.03-4.47-0.68l-0.02-0.48c0.28,0.03,0.56,0.05,0.83,0.13
			c1.7,0.54,3.7,0.46,5.48,0.6c7.03,0.56,13.56,0.81,20.62,0.09C796.65,634.13,819.46,620.8,836.64,599.71z"/>
	</g>
	<g class="st21">
		<g>
			<path class="st20" d="M170.01,681.03l0.4-0.79c18.86-3.37,27.7-12.21,27.7-17.87c-0.3-3.97-3.38-11.32-7.15-18.07l5.76-6.05h0.79
				c4.27,7.74,7.15,16.58,7.15,22.33c0,3.28-0.89,6.85-2.68,10.12c-3.87,7.15-14.19,13.6-27.79,16.08L170.01,681.03z"/>
			<path class="st20" d="M217.07,669.42v-66.11l7.24-1.89l0.5,0.4l-0.1,66.41l-7.05,1.49L217.07,669.42z"/>
			<path class="st20" d="M515.84,601.53l-6.94,1.77v48.44c0,3.59-0.29,6.07-0.71,7.86c-2.48,1.79-6.04,1.87-9.31,1.87h-0.21
				c-6.06,0-7.83-1.37-11.52-8.83c-3.85-8.04-7.04-15.37-14.58-15.37c-9.23,0-13.9,12-17.67,18.06c-3.19,4.96-4.67,6.14-8.73,6.14
				l-0.03,0.11H280.7c-0.47-0.05-1-0.11-1.61-0.11c-5.14,0-7.15-1.58-11-9.52c-1.4-2.87-8.65-18.75-11.42-25.02h-0.79l-5.88,6.17
				c3.98,6.86,11.42,21.33,13.11,24.71l0.32,0.5c-3.38,2.37-10.23,3.56-16.3,3.56c-2.27,0-7.65-0.29-10.81-0.98l-0.5,0.4l-1.08,7.25
				c3.77,0.9,9.62,1.19,11.5,1.19c9.73,0,16.69-1.9,20.36-5.78c2.77,4.09,5.85,5.27,10.52,5.27h166.97c0.32,0,0.61,0,0.9-0.03
				c7.38-0.05,10.26-1.27,14.19-6.33c6.36,4.56,14,7.54,19.75,7.54c3.96,0,6.25-1.48,7.75-4.46c2.66,2.27,5.85,3.27,10.02,3.27
				c0.05,0,0.13,0,0.18-0.03v0.03c12.21,0,19.75-3.77,19.75-18.35v-49.05L515.84,601.53z M477.13,662.76
				c-3.48,0-9.41-2.48-14.48-5.85c2.87-5.75,6.14-11.89,9.7-11.89c2.58,0,5.17,3.67,9.26,13.47c0.29,0.61,0.47,1.21,0.79,1.79
				C481.3,661.97,479.72,662.76,477.13,662.76z"/>
			<path class="st20" d="M529.55,669.42v-66.11l7.24-1.89l0.5,0.4l-0.1,66.41l-7.05,1.49L529.55,669.42z"/>
		</g>
		<g>
			<path class="st20" d="M207.02,500c-10.41,0-18.64,3.68-24.46,10.95c-5.68,7.09-8.56,17.66-8.56,31.42
				c0,13.77,2.88,24.34,8.56,31.42c5.82,7.27,14.05,10.95,24.46,10.95c10.41,0,18.64-3.68,24.46-10.95
				c5.68-7.09,8.56-17.66,8.56-31.42c0-13.76-2.88-24.33-8.56-31.42C225.66,503.69,217.43,500,207.02,500z M223.98,568.43
				c-4.17,4.99-9.72,7.42-16.96,7.42c-7.25,0-12.8-2.43-16.97-7.42c-4.23-5.06-6.38-12.71-6.38-22.74v-6.61
				c0-10.03,2.15-17.68,6.38-22.75c4.17-4.99,9.72-7.42,16.97-7.42c7.24,0,12.79,2.43,16.96,7.42c4.23,5.07,6.38,12.72,6.38,22.75
				v6.61C230.36,555.71,228.21,563.36,223.98,568.43z"/>
			<path class="st20" d="M317.4,541.44c3.52-4.14,5.31-9.72,5.31-16.57c0-7.09-1.91-12.83-5.68-17.05
				c-3.84-4.31-9.45-6.49-16.66-6.49h-32.47v82.11h9.35v-34.89h18.51l20.03,34.89h10.73l-20.64-35.61
				C310.7,546.9,314.57,544.76,317.4,541.44z M277.24,510.23h23.12c2.2,0,4.12,0.34,5.69,1c1.56,0.66,2.87,1.54,3.9,2.62
				c1.03,1.08,1.77,2.33,2.28,3.8c0.53,1.56,0.8,3.19,0.8,4.86v4.83c0,1.67-0.27,3.3-0.79,4.85c-0.51,1.48-1.25,2.73-2.28,3.81
				c-1.03,1.08-2.34,1.96-3.9,2.62c-1.57,0.66-3.49,1-5.69,1h-23.12V510.23z"/>
			<path class="st20" d="M396.54,539.69c1.33-1,2.54-2.19,3.61-3.57c2.44-3.17,3.69-7.63,3.69-13.26c0-6.76-1.84-12.09-5.47-15.84
				c-3.66-3.78-8.78-5.69-15.21-5.69h-31.37v82.11h33.46c6.94,0,12.4-2.25,16.25-6.7c3.75-4.34,5.65-10.09,5.65-17.11
				c0-6.33-1.54-11.41-4.57-15.08C400.87,542.49,398.85,540.87,396.54,539.69z M393.54,516.62c0.48,1.31,0.72,2.74,0.72,4.25v4.39
				c0,1.51-0.24,2.94-0.72,4.25c-0.46,1.27-1.13,2.34-2.05,3.29c-0.92,0.94-2.1,1.72-3.53,2.31c-1.43,0.59-3.16,0.89-5.15,0.89
				h-21.69v-25.77h21.69c2,0,3.75,0.29,5.19,0.86c1.4,0.55,2.58,1.31,3.48,2.24C392.41,514.27,393.08,515.35,393.54,516.62z
				 M361.12,544.91h23.45c2.28,0,4.25,0.34,5.87,1.01c1.59,0.66,2.94,1.56,4,2.68c1.06,1.12,1.83,2.4,2.33,3.92
				c0.53,1.59,0.8,3.29,0.8,5.06v4.4c0,1.76-0.27,3.43-0.8,4.99c-0.5,1.48-1.27,2.75-2.33,3.88c-1.06,1.12-2.41,2.02-4,2.68
				c-1.61,0.67-3.58,1.01-5.87,1.01h-23.45V544.91z"/>
			<polygon class="st20" points="430.59,510.01 442.15,510.01 442.15,574.75 430.59,574.75 430.59,583.43 463.05,583.43 
				463.05,574.75 451.5,574.75 451.5,510.01 463.05,510.01 463.05,501.33 430.59,501.33 			"/>
			<polygon class="st20" points="481.11,501.33 481.11,510.23 508.08,510.23 508.08,583.43 517.43,583.43 517.43,510.23 
				544.4,510.23 544.4,501.33 			"/>
		</g>
	</g>
</g>
<g>
	<g>
		
			<linearGradient id="SVGID_00000008128972442701554170000000268633416832796348_" gradientUnits="userSpaceOnUse" x1="817.6793" y1="522.0747" x2="857.6323" y2="522.0747">
			<stop  offset="0" style="stop-color:#F8A16B"/>
			<stop  offset="0.7016" style="stop-color:#F05485"/>
			<stop  offset="1" style="stop-color:#EC3290"/>
		</linearGradient>
		<path style="fill:url(#SVGID_00000008128972442701554170000000268633416832796348_);" d="M820,453.56
			c0.08,0.02,0.22,0.04,0.29,0.08c1.22,0.55,4.41,4.1,5.62,5.34c12.5,12.73,21.73,28.3,26.92,45.37
			c8.17,26.99,6.04,57.95-7.37,82.97c-0.41,0.76-1.38,3.06-2.1,3.28c11.3-21.17,15.35-45.45,11.56-69.14
			c-3.57-21.71-13.7-41.8-29.04-57.57c-2.56-2.61-5.22-5.41-8.19-7.55C818.4,455.37,819.21,454.47,820,453.56z"/>
		
			<linearGradient id="SVGID_00000115489103799327003070000005221059612050660024_" gradientUnits="userSpaceOnUse" x1="635.894" y1="482.6692" x2="728.6699" y2="482.6692">
			<stop  offset="0" style="stop-color:#F8A16B"/>
			<stop  offset="0.7016" style="stop-color:#F05485"/>
			<stop  offset="1" style="stop-color:#EC3290"/>
		</linearGradient>
		<path style="fill:url(#SVGID_00000115489103799327003070000005221059612050660024_);" d="M728.44,430.01l0.23,0.01
			c-21.25,4.01-40.87,14.15-56.43,29.17c-20.53,20.07-32.32,47.42-32.8,76.13l-3.12-0.04l-0.37-0.29c-0.02-0.18-0.03-0.36-0.04-0.53
			c-0.15-3.42,0.76-8.37,1.27-11.82c3.43-22.87,13.81-43.17,29.43-60.07c13.13-14.21,30.82-24.37,49.27-29.87
			C719.85,431.53,724.3,430.17,728.44,430.01z"/>
		
			<linearGradient id="SVGID_00000074417164515934006170000009683697438146119848_" gradientUnits="userSpaceOnUse" x1="802.3571" y1="512.7373" x2="850.3902" y2="512.7373">
			<stop  offset="0" style="stop-color:#F8A16B"/>
			<stop  offset="0.7016" style="stop-color:#F05485"/>
			<stop  offset="1" style="stop-color:#EC3290"/>
		</linearGradient>
		<path style="fill:url(#SVGID_00000074417164515934006170000009683697438146119848_);" d="M804.38,450.5
			c2.98,1.66,5.83,4.18,8.46,6.37c13.82,11.43,24.42,26.26,30.77,43.04c7.01,18.45,8.62,38.51,4.65,57.84
			c-1.16,5.81-2.79,11.8-5.22,17.22l-0.14-0.15c6.22-19.05,8.31-34.86,4.68-54.71c-3.91-20.67-14.19-39.6-29.39-54.14
			c-4.91-4.65-10.27-8.58-15.82-12.41C802.94,452.49,803.68,451.5,804.38,450.5z"/>
		
			<linearGradient id="SVGID_00000007414097031095744670000016418320559924937663_" gradientUnits="userSpaceOnUse" x1="643.393" y1="494.8605" x2="715.7612" y2="494.8605">
			<stop  offset="0" style="stop-color:#F8A16B"/>
			<stop  offset="0.7016" style="stop-color:#F05485"/>
			<stop  offset="1" style="stop-color:#EC3290"/>
		</linearGradient>
		<path style="fill:url(#SVGID_00000007414097031095744670000016418320559924937663_);" d="M715.61,440.49l0.15-0.01
			c-0.05,0.24-2.6,1.03-3.03,1.18c-9.09,3.2-17.93,8.33-25.65,14.07c-22.61,16.89-37.13,42.45-40.07,70.51
			c-0.37,3.79-0.67,7.77-0.52,11.58c0.14,3.34,0.98,7.72,0.5,10.94c-0.69,0.44-1.79,0.38-2.6,0.42l-0.58,0.07l-0.25-0.41
			c-0.96-23.35,2.15-42.89,14.6-63.17c11.04-17.98,26.91-32.5,46.3-41.03C708.03,443.06,711.79,441.4,715.61,440.49z"/>
		
			<linearGradient id="SVGID_00000144319532240892905550000006969749351461945994_" gradientUnits="userSpaceOnUse" x1="787.4764" y1="505.1624" x2="842.9662" y2="505.1624">
			<stop  offset="0" style="stop-color:#F8A16B"/>
			<stop  offset="0.7016" style="stop-color:#F05485"/>
			<stop  offset="1" style="stop-color:#EC3290"/>
		</linearGradient>
		<path style="fill:url(#SVGID_00000144319532240892905550000006969749351461945994_);" d="M789,450.09
			c15.92,7.77,29.38,19.79,38.9,34.74c14.79,23.09,18.19,48.76,12.38,75.36l-0.28,0.04c0.87-2.7,1.14-6.05,1.47-8.9
			c1.61-14.02,0.65-27.85-3.64-41.33c-6.81-21.03-20.81-39-39.53-50.76c-3.46-2.21-7.18-4.05-10.82-5.94
			C788.03,452.26,788.5,451.17,789,450.09z"/>
		
			<linearGradient id="SVGID_00000002354546704100303370000015197353089971886519_" gradientUnits="userSpaceOnUse" x1="650.4891" y1="506.9628" x2="705.0648" y2="506.9628">
			<stop  offset="0" style="stop-color:#F8A16B"/>
			<stop  offset="0.7016" style="stop-color:#F05485"/>
			<stop  offset="1" style="stop-color:#EC3290"/>
		</linearGradient>
		<path style="fill:url(#SVGID_00000002354546704100303370000015197353089971886519_);" d="M704.88,452.47l0.19,0.15
			c-2.93,2.16-6.9,3.84-10.11,6.1c-13.74,9.65-25.25,22.37-32.44,37.63c-7.63,16.08-10.53,34-8.36,51.66
			c0.47,4.13,1.09,8.7,2.51,12.61c-1.08,0.17-2.1,0.51-3.15,0.83c-0.2-0.1-0.34-0.28-0.49-0.44c-4.33-15.98-2.81-36.43,2.42-52.1
			C663.81,483.88,681.31,464.21,704.88,452.47z"/>
		
			<linearGradient id="SVGID_00000000194922317103222670000007056418622020019870_" gradientUnits="userSpaceOnUse" x1="773.5869" y1="499.8688" x2="835.7601" y2="499.8688">
			<stop  offset="0" style="stop-color:#F8A16B"/>
			<stop  offset="0.7016" style="stop-color:#F05485"/>
			<stop  offset="1" style="stop-color:#EC3290"/>
		</linearGradient>
		<path style="fill:url(#SVGID_00000000194922317103222670000007056418622020019870_);" d="M774.72,452.11
			c15.24,4.48,30.02,15.41,40.17,27.41c11.96,14.17,19.19,31.72,20.66,50.21c0.44,5.97,0.15,11.9-0.36,17.86l-0.25,0.05
			c-0.06-4.21,0.35-8.42,0.2-12.66c-0.52-15.11-5.09-29.81-13.24-42.55c-9.17-14.6-22.49-26.13-38.25-33.12
			c-3.23-1.43-6.63-2.9-10.08-3.68C774.03,454.46,774.4,453.32,774.72,452.11z"/>
		
			<linearGradient id="SVGID_00000003094717174544822810000013785731707290815880_" gradientUnits="userSpaceOnUse" x1="657.868" y1="517.8732" x2="698.5128" y2="517.8732">
			<stop  offset="0" style="stop-color:#F8A16B"/>
			<stop  offset="0.7016" style="stop-color:#F05485"/>
			<stop  offset="1" style="stop-color:#EC3290"/>
		</linearGradient>
		<path style="fill:url(#SVGID_00000003094717174544822810000013785731707290815880_);" d="M698.36,464.54l0.15,0.11
			c-2.02,1.93-4.61,3.44-6.78,5.24c-4.94,4.17-9.41,8.86-13.34,13.99c-15.03,19.43-21.06,44.34-16.57,68.49
			c0.62,3.38,1.38,6.83,2.46,10.09c0.78,2.37,2.25,5,2.55,7.46c-0.78,0.42-1.57,0.78-2.39,1.13l-0.38,0.18l-0.42-0.17
			c-1.1-1.76-1.61-4.53-2.2-6.54c-4.1-14.13-4.69-29.05-1.7-43.46c3.42-16.85,12.24-33.38,24.58-45.43
			C688.61,471.41,693.37,467.84,698.36,464.54z"/>
		
			<linearGradient id="SVGID_00000005978180294390945810000013816348574066878652_" gradientUnits="userSpaceOnUse" x1="670.5664" y1="632.4371" x2="783.331" y2="632.4371">
			<stop  offset="0" style="stop-color:#F8A16B"/>
			<stop  offset="0.7016" style="stop-color:#F05485"/>
			<stop  offset="1" style="stop-color:#EC3290"/>
		</linearGradient>
		<path style="fill:url(#SVGID_00000005978180294390945810000013816348574066878652_);" d="M670.57,616.14
			c1.81,0.88,5.84,5.25,8.03,6.89c9.64,7.2,19.65,12.94,30.96,17.11c19.32,7.12,41.4,8.11,61.38,3.3c3.88-0.93,7.95-1.96,11.58-3.64
			l0.8,2.92c0.06,0.22-0.04,0.42-0.1,0.64c-1.46,0.89-3.62,1.27-5.29,1.71c-10.39,2.76-21.13,3.97-31.88,3.61
			C718.12,647.96,689.93,636.53,670.57,616.14z"/>
		
			<linearGradient id="SVGID_00000011751563687359590520000002919091996529366423_" gradientUnits="userSpaceOnUse" x1="761.074" y1="495.9005" x2="828.5325" y2="495.9005">
			<stop  offset="0" style="stop-color:#F8A16B"/>
			<stop  offset="0.7016" style="stop-color:#F05485"/>
			<stop  offset="1" style="stop-color:#EC3290"/>
		</linearGradient>
		<path style="fill:url(#SVGID_00000011751563687359590520000002919091996529366423_);" d="M761.46,456.2
			c20.49,4.34,37.44,14.41,50.3,31.06c8.69,11.35,14.25,24.77,16.16,38.93c0.41,3.04,0.86,6.35,0.47,9.41
			c-0.84-3.61-0.82-7.81-1.47-11.56c-2.08-11.36-6.62-22.13-13.31-31.54c-12.42-17.51-31.34-29.33-52.53-32.8
			C761.3,458.53,761.39,457.38,761.46,456.2z"/>
		
			<linearGradient id="SVGID_00000031181809760179282160000001059401447176418964_" gradientUnits="userSpaceOnUse" x1="684.7795" y1="630.3165" x2="791.1838" y2="630.3165">
			<stop  offset="0" style="stop-color:#F8A16B"/>
			<stop  offset="0.7016" style="stop-color:#F05485"/>
			<stop  offset="1" style="stop-color:#EC3290"/>
		</linearGradient>
		<path style="fill:url(#SVGID_00000031181809760179282160000001059401447176418964_);" d="M684.78,619.09
			c1.64,0.57,6.76,4.48,8.88,5.76c6.43,3.89,13.28,7.05,20.42,9.41c25.01,8.32,52.3,6.5,75.98-5.09c0.32,0.99,0.74,1.95,1.13,2.91
			c-0.04,0.28-0.03,0.37-0.23,0.58c-0.98,1.02-3.81,1.72-5.18,2.21c-11.48,4.26-23.61,6.52-35.85,6.67
			c-19.56,0.13-38.76-5.23-55.43-15.48C691.19,624.01,687.57,621.81,684.78,619.09z"/>
		
			<linearGradient id="SVGID_00000097485571672241913530000007085774849538213531_" gradientUnits="userSpaceOnUse" x1="665.1949" y1="527.6893" x2="694.2956" y2="527.6893">
			<stop  offset="0" style="stop-color:#F8A16B"/>
			<stop  offset="0.7016" style="stop-color:#F05485"/>
			<stop  offset="1" style="stop-color:#EC3290"/>
		</linearGradient>
		<path style="fill:url(#SVGID_00000097485571672241913530000007085774849538213531_);" d="M694.26,476.62
			c0.2,0.37-0.55,0.87-0.86,1.16c-3.03,2.92-5.88,5.8-8.5,9.1c-7.62,9.5-12.99,20.62-15.68,32.5c-4.25,18.88-1.35,41.02,9.12,57.51
			c-0.74,0.63-1.61,1.14-2.42,1.68c-0.14,0.1-0.41,0.14-0.58,0.19c-0.16-0.11-0.28-0.2-0.4-0.35c-1.36-1.79-2.28-4.52-3.15-6.61
			c-5.26-12.33-7.42-25.76-6.32-39.11C667.11,510.87,677.49,490.65,694.26,476.62z"/>
		
			<linearGradient id="SVGID_00000087410709427072239050000010370972412429528767_" gradientUnits="userSpaceOnUse" x1="747.4256" y1="493.1129" x2="820.0569" y2="493.1129">
			<stop  offset="0" style="stop-color:#F8A16B"/>
			<stop  offset="0.7016" style="stop-color:#F05485"/>
			<stop  offset="1" style="stop-color:#EC3290"/>
		</linearGradient>
		<path style="fill:url(#SVGID_00000087410709427072239050000010370972412429528767_);" d="M747.52,462.14
			c18.01,0.84,33.97,6.68,47.84,18.31c10.36,8.68,17.97,20.69,22.25,33.44c1.09,3.25,2.14,6.77,2.45,10.2
			c-1.28-3.05-1.8-6.55-2.91-9.7c-3.59-10.21-9.41-19.49-17.04-27.18c-14.21-14.37-32.63-21.4-52.68-21.5
			C747.58,464.49,747.59,463.36,747.52,462.14z"/>
		
			<linearGradient id="SVGID_00000059291530117855199900000018024180982532735914_" gradientUnits="userSpaceOnUse" x1="672.5058" y1="538.783" x2="691.5891" y2="538.783">
			<stop  offset="0" style="stop-color:#F8A16B"/>
			<stop  offset="0.7016" style="stop-color:#F05485"/>
			<stop  offset="1" style="stop-color:#EC3290"/>
		</linearGradient>
		<path style="fill:url(#SVGID_00000059291530117855199900000018024180982532735914_);" d="M689.52,491.83
			c0.07,0.69-2.05,3.3-2.57,4.06c-2.08,3.07-4.04,6.3-5.67,9.63c-3.93,8.03-6.12,17.18-6.83,26.05
			c-1.38,18.98,4.78,37.74,17.14,52.21l-2.01,1.84c-0.42,0.16-0.5,0.13-0.93,0.04c-1.68-1.45-2.9-3.56-4.11-5.41
			c-6.87-10.44-10.64-22.68-11.79-35.06C671.16,525.9,677.18,506.75,689.52,491.83z"/>
		
			<linearGradient id="SVGID_00000180358735505456990120000004458518475222556545_" gradientUnits="userSpaceOnUse" x1="700.1124" y1="626.369" x2="797.5005" y2="626.369">
			<stop  offset="0" style="stop-color:#F8A16B"/>
			<stop  offset="0.7016" style="stop-color:#F05485"/>
			<stop  offset="1" style="stop-color:#EC3290"/>
		</linearGradient>
		<path style="fill:url(#SVGID_00000180358735505456990120000004458518475222556545_);" d="M795.27,618.56l0.55,0.07
			c0.76,0.55,1.23,1.71,1.68,2.52c-5.63,3.88-14.25,7.09-20.84,9.05c-24.87,7.3-51.62,4.42-74.37-8c-0.77-0.44-1.47-0.92-2.18-1.45
			c1.85,0.32,5.48,2.63,7.43,3.48c3.78,1.67,7.65,3.1,11.61,4.28c19.83,5.95,41.08,5.13,60.4-2.31
			C785.05,624.08,790.1,621.35,795.27,618.56z"/>
		
			<linearGradient id="SVGID_00000085964698148090332890000012359691765461550006_" gradientUnits="userSpaceOnUse" x1="710.9048" y1="616.9122" x2="801.9135" y2="616.9122">
			<stop  offset="0" style="stop-color:#F8A16B"/>
			<stop  offset="0.7016" style="stop-color:#F05485"/>
			<stop  offset="1" style="stop-color:#EC3290"/>
		</linearGradient>
		<path style="fill:url(#SVGID_00000085964698148090332890000012359691765461550006_);" d="M799.5,606.94
			c0.81,0.53,1.72,2.07,2.41,2.85c-5.84,3.88-11.58,7.26-18.02,10.04c-17.47,7.32-36.78,8.99-55.24,4.78
			c-5.17-1.21-10.14-3.01-15.06-4.97c-0.94-0.4-1.83-0.79-2.68-1.37l0.54,0.09l-0.02,0.31l0.38,0.22l0.01-0.4
			c7.72,2.92,14.94,5.11,23.14,6.21C758.31,627.84,780.88,621.14,799.5,606.94z"/>
		
			<linearGradient id="SVGID_00000155131204172559496000000005675303087983446936_" gradientUnits="userSpaceOnUse" x1="720.4839" y1="607.725" x2="804.2072" y2="607.725">
			<stop  offset="0" style="stop-color:#F8A16B"/>
			<stop  offset="0.7016" style="stop-color:#F05485"/>
			<stop  offset="1" style="stop-color:#EC3290"/>
		</linearGradient>
		<path style="fill:url(#SVGID_00000155131204172559496000000005675303087983446936_);" d="M801.58,595.85
			c0.98,0.32,1.98,1.87,2.63,2.66c-5.74,4.73-11.46,8.95-18.17,12.27c-19.31,9.54-42.33,11.69-62.84,4.74
			c-0.97-0.3-1.82-0.65-2.71-1.13c7.55,2.43,15.4,3.78,23.32,4.02C765.82,619.17,785.65,610.73,801.58,595.85z"/>
		
			<linearGradient id="SVGID_00000099645029948001308630000015980387049864369055_" gradientUnits="userSpaceOnUse" x1="733.6544" y1="597.9" x2="806.4249" y2="597.9">
			<stop  offset="0" style="stop-color:#F8A16B"/>
			<stop  offset="0.7016" style="stop-color:#F05485"/>
			<stop  offset="1" style="stop-color:#EC3290"/>
		</linearGradient>
		<path style="fill:url(#SVGID_00000099645029948001308630000015980387049864369055_);" d="M803.36,583.55
			c1.07,0.47,2.13,1.51,3.06,2.23c-4.87,5.25-9.99,10.02-15.99,13.96c-13.8,9.13-30.22,13.47-46.73,12.34
			c-2.23-0.17-4.53-0.3-6.72-0.75c-0.7-0.13-2.75-0.76-3.31-0.5l-0.01-0.35c0.21,0.02,0.41,0.03,0.62,0.1
			c1.26,0.4,2.74,0.34,4.05,0.44c5.2,0.42,10.03,0.6,15.26,0.07C773.77,609.02,790.65,599.15,803.36,583.55z"/>
	</g>
	<g>
		<g>
			<path class="st20" d="M222.37,644.23l0.4-0.79c18.86-3.37,27.7-12.21,27.7-17.87c-0.3-3.97-3.38-11.32-7.15-18.07l5.76-6.05h0.79
				c4.27,7.74,7.15,16.58,7.15,22.33c0,3.28-0.89,6.85-2.68,10.12c-3.87,7.15-14.19,13.6-27.79,16.08L222.37,644.23z"/>
			<path class="st20" d="M269.42,632.62v-66.11l7.24-1.89l0.5,0.4l-0.1,66.41l-7.05,1.49L269.42,632.62z"/>
			<path class="st20" d="M568.2,564.73l-6.94,1.77v48.44c0,3.59-0.29,6.07-0.71,7.86c-2.48,1.79-6.04,1.87-9.31,1.87h-0.21
				c-6.06,0-7.83-1.37-11.52-8.83c-3.85-8.04-7.04-15.37-14.58-15.37c-9.23,0-13.9,12-17.67,18.06c-3.19,4.96-4.67,6.14-8.73,6.14
				l-0.03,0.11H333.06c-0.47-0.05-1-0.11-1.61-0.11c-5.14,0-7.15-1.58-11-9.52c-1.4-2.87-8.65-18.75-11.42-25.03h-0.79l-5.88,6.17
				c3.98,6.86,11.42,21.33,13.11,24.71l0.32,0.5c-3.38,2.37-10.23,3.56-16.3,3.56c-2.27,0-7.65-0.29-10.81-0.98l-0.5,0.4l-1.08,7.25
				c3.77,0.9,9.62,1.19,11.5,1.19c9.73,0,16.69-1.9,20.36-5.78c2.77,4.09,5.85,5.27,10.52,5.27h166.97c0.32,0,0.61,0,0.9-0.03
				c7.38-0.05,10.26-1.27,14.19-6.33c6.36,4.56,14,7.54,19.75,7.54c3.96,0,6.25-1.48,7.75-4.46c2.66,2.27,5.85,3.27,10.02,3.27
				c0.05,0,0.13,0,0.18-0.03v0.03c12.21,0,19.75-3.77,19.75-18.35v-49.05L568.2,564.73z M529.49,625.96
				c-3.48,0-9.41-2.48-14.48-5.85c2.87-5.75,6.14-11.89,9.7-11.89c2.58,0,5.17,3.67,9.26,13.47c0.29,0.61,0.47,1.21,0.79,1.79
				C533.65,625.17,532.07,625.96,529.49,625.96z"/>
			<path class="st20" d="M581.9,632.62v-66.11l7.24-1.89l0.5,0.4l-0.1,66.41l-7.05,1.49L581.9,632.62z"/>
		</g>
		<g>
			<path class="st20" d="M259.38,463.2c-10.41,0-18.64,3.68-24.46,10.95c-5.68,7.09-8.56,17.66-8.56,31.42
				c0,13.77,2.88,24.34,8.56,31.42c5.82,7.27,14.05,10.95,24.46,10.95c10.41,0,18.64-3.68,24.46-10.95
				c5.68-7.09,8.56-17.66,8.56-31.42c0-13.76-2.88-24.33-8.56-31.42C278.01,466.89,269.78,463.2,259.38,463.2z M276.34,531.63
				c-4.17,4.99-9.72,7.42-16.96,7.42c-7.25,0-12.8-2.43-16.97-7.42c-4.23-5.06-6.38-12.71-6.38-22.74v-6.61
				c0-10.03,2.15-17.68,6.38-22.75c4.17-4.99,9.72-7.42,16.97-7.42c7.24,0,12.79,2.43,16.96,7.42c4.23,5.07,6.38,12.72,6.38,22.75
				v6.61C282.71,518.91,280.57,526.56,276.34,531.63z"/>
			<path class="st20" d="M369.75,504.64c3.52-4.14,5.31-9.72,5.31-16.57c0-7.09-1.91-12.83-5.68-17.05
				c-3.84-4.31-9.45-6.49-16.66-6.49h-32.47v82.11h9.35v-34.89h18.51l20.03,34.89h10.73l-20.64-35.61
				C363.06,510.1,366.93,507.96,369.75,504.64z M329.6,473.43h23.12c2.2,0,4.12,0.34,5.69,1c1.56,0.66,2.87,1.54,3.9,2.62
				c1.03,1.08,1.77,2.33,2.28,3.8c0.53,1.56,0.8,3.19,0.8,4.86v4.83c0,1.67-0.27,3.3-0.79,4.85c-0.51,1.48-1.25,2.73-2.28,3.81
				c-1.03,1.08-2.34,1.96-3.9,2.62c-1.57,0.66-3.49,1-5.69,1H329.6V473.43z"/>
			<path class="st20" d="M448.9,502.89c1.33-1,2.54-2.19,3.61-3.57c2.44-3.17,3.69-7.63,3.69-13.26c0-6.76-1.84-12.09-5.47-15.84
				c-3.66-3.78-8.78-5.69-15.21-5.69h-31.37v82.11h33.46c6.94,0,12.4-2.25,16.25-6.7c3.75-4.34,5.65-10.09,5.65-17.11
				c0-6.33-1.54-11.41-4.57-15.08C453.22,505.69,451.21,504.07,448.9,502.89z M445.9,479.82c0.48,1.31,0.72,2.74,0.72,4.25v4.39
				c0,1.51-0.24,2.94-0.72,4.25c-0.46,1.27-1.13,2.34-2.05,3.29c-0.92,0.94-2.1,1.72-3.53,2.31c-1.43,0.59-3.16,0.89-5.15,0.89
				h-21.69v-25.77h21.69c2,0,3.75,0.29,5.19,0.86c1.4,0.55,2.58,1.31,3.48,2.24C444.76,477.47,445.44,478.55,445.9,479.82z
				 M413.48,508.11h23.45c2.28,0,4.25,0.34,5.87,1.01c1.59,0.66,2.94,1.56,4,2.68c1.06,1.12,1.83,2.4,2.33,3.92
				c0.53,1.59,0.8,3.29,0.8,5.06v4.4c0,1.76-0.27,3.43-0.8,4.99c-0.5,1.48-1.27,2.75-2.33,3.88c-1.06,1.12-2.41,2.02-4,2.68
				c-1.61,0.67-3.58,1.01-5.87,1.01h-23.45V508.11z"/>
			<polygon class="st20" points="482.95,473.21 494.5,473.21 494.5,537.95 482.95,537.95 482.95,546.63 515.41,546.63 
				515.41,537.95 503.85,537.95 503.85,473.21 515.41,473.21 515.41,464.53 482.95,464.53 			"/>
			<polygon class="st20" points="533.47,464.53 533.47,473.43 560.44,473.43 560.44,546.63 569.79,546.63 569.79,473.43 
				596.75,473.43 596.75,464.53 			"/>
		</g>
	</g>
</g>
</svg>
