<?xml version="1.0" encoding="utf-8"?>
<!-- Generator: Adobe Illustrator 28.1.0, SVG Export Plug-In . SVG Version: 6.00 Build 0)  -->
<svg version="1.1" id="Layer_1" xmlns="http://www.w3.org/2000/svg" xmlns:xlink="http://www.w3.org/1999/xlink" x="0px" y="0px"
	 viewBox="0 0 1080 1080" style="enable-background:new 0 0 1080 1080;" xml:space="preserve">
<style type="text/css">
	.st0{display:none;}
	.st1{display:inline;opacity:0.03;fill:#161616;}
	.st2{fill:url(#SVGID_1_);}
	.st3{fill:url(#SVGID_00000043415863882533085440000004663308338083145380_);}
	.st4{fill:url(#SVGID_00000005962894174088341010000010151658433464525747_);}
	.st5{fill:url(#SVGID_00000025445056383055999770000006844145490192281480_);}
	.st6{fill:url(#SVGID_00000096021580436227684140000008098754725213824929_);}
	.st7{fill:url(#SVGID_00000008137412511869917100000016526308821351004599_);}
	.st8{fill:url(#SVGID_00000161624676611654859140000017481716809300343694_);}
	.st9{fill:url(#SVGID_00000127024703520718576960000016384487811664227475_);}
	.st10{fill:url(#SVGID_00000111874637140655083510000015311913208276142209_);}
	.st11{fill:url(#SVGID_00000093136193912914135690000010284933982363128734_);}
	.st12{fill:url(#SVGID_00000154389618215013271470000003231686345080734095_);}
	.st13{fill:url(#SVGID_00000067958937881699097280000015145143300480969119_);}
	.st14{fill:url(#SVGID_00000086692624543612924450000008369038202368726657_);}
	.st15{fill:url(#SVGID_00000171692279735328534820000013283670712827648958_);}
	.st16{fill:url(#SVGID_00000072994249013975836910000007020168179987516298_);}
	.st17{fill:url(#SVGID_00000009556167603010093800000002910669134105526959_);}
	.st18{fill:url(#SVGID_00000027564050794032220350000007926180309694920077_);}
	.st19{fill:url(#SVGID_00000050647770724212413530000011359589483798355351_);}
	.st20{fill:#606161;}
	.st21{display:inline;}
	.st22{fill:url(#SVGID_00000133527522387250800660000006855163883492192399_);}
	.st23{fill:url(#SVGID_00000083808282095359164810000016980970470951636371_);}
	.st24{fill:url(#SVGID_00000090980552966378214640000002766731608005391271_);}
	.st25{fill:url(#SVGID_00000150790692444755219800000013746439898216975290_);}
	.st26{fill:url(#SVGID_00000145036241575999422770000001170679986501839015_);}
	.st27{fill:url(#SVGID_00000148640071431662913290000015135113076528167315_);}
	.st28{fill:url(#SVGID_00000180336695100141979510000015593823550854486442_);}
	.st29{fill:url(#SVGID_00000178169649349392681350000002853906873710912139_);}
	.st30{fill:url(#SVGID_00000088855472636534546140000011061135797760124803_);}
	.st31{fill:url(#SVGID_00000117652009842756683460000015138357859407696311_);}
	.st32{fill:url(#SVGID_00000093163669599369134060000010248549696428111500_);}
	.st33{fill:url(#SVGID_00000065771853908984416880000000758562622766355112_);}
	.st34{fill:url(#SVGID_00000003084135934487283560000016922396943314136734_);}
	.st35{fill:url(#SVGID_00000022555626978853640340000016403033509837448871_);}
	.st36{fill:url(#SVGID_00000082349147182264476500000013689314594689464227_);}
	.st37{fill:url(#SVGID_00000014613325452659213010000013683155425770520451_);}
	.st38{fill:url(#SVGID_00000090263054896213652130000007541897850336807833_);}
	.st39{fill:url(#SVGID_00000102521625617692230380000010957158296134310275_);}
	.st40{fill:url(#SVGID_00000167389306072015644190000015854049840090174624_);}
	.st41{fill:url(#SVGID_00000098218459575197677680000011236967037088605853_);}
	.st42{fill:url(#SVGID_00000018239173665793979430000003637376616868077473_);}
	.st43{fill:url(#SVGID_00000116929038956203839540000011312145906364987838_);}
	.st44{fill:url(#SVGID_00000106129319796195814080000016789648494701590961_);}
	.st45{fill:url(#SVGID_00000006706204882932618340000013736931680236225204_);}
	.st46{fill:url(#SVGID_00000128463505334074497280000013800917729026134146_);}
	.st47{fill:url(#SVGID_00000108292345389025376460000009513978018139576466_);}
	.st48{fill:url(#SVGID_00000075855994114021645140000013468623710377913017_);}
	.st49{fill:url(#SVGID_00000065074791994367234430000003304130209177953700_);}
	.st50{fill:url(#SVGID_00000109730349734283258670000008956766179840821898_);}
	.st51{fill:url(#SVGID_00000053520396814817280440000012325545529843038614_);}
	.st52{fill:url(#SVGID_00000072992564811821684090000013863362990433684387_);}
	.st53{fill:url(#SVGID_00000172405565194198918690000015225451126857530510_);}
	.st54{fill:url(#SVGID_00000111159597994979531570000006155674094959143820_);}
	.st55{fill:url(#SVGID_00000010992612272400649400000018262646084179959486_);}
	.st56{fill:url(#SVGID_00000096775176982179310430000003653884666885005497_);}
	.st57{fill:url(#SVGID_00000080912954860820642910000009519723409659595198_);}
	.st58{fill:url(#SVGID_00000008137345394962450870000013189440175524441261_);}
	.st59{fill:url(#SVGID_00000141431630217945377300000002285237471669164703_);}
	.st60{fill:url(#SVGID_00000071534548501718423040000008438253791817783950_);}
	.st61{fill:url(#SVGID_00000029036387121424618670000014501683315944927106_);}
	.st62{fill:url(#SVGID_00000158722493452155788990000001978983017476564361_);}
	.st63{fill:url(#SVGID_00000132804848418254082710000005538328459618369417_);}
	.st64{fill:url(#SVGID_00000167371373613257418280000000063494603885479334_);}
	.st65{fill:url(#SVGID_00000103232375380864739840000014758292323705150596_);}
	.st66{fill:url(#SVGID_00000034801218471118540960000017850034824358470548_);}
	.st67{fill:url(#SVGID_00000086664166571866332000000004912555445631832965_);}
	.st68{fill:url(#SVGID_00000183949403295816317080000005513644900417722783_);}
	.st69{fill:url(#SVGID_00000049925698768064057260000005807143322746641548_);}
	.st70{fill:url(#SVGID_00000164500717021030016180000014197730897185403019_);}
	.st71{fill:url(#SVGID_00000167394793805540911020000000417170631701232268_);}
	.st72{fill:url(#SVGID_00000102540388056076441680000002102802978499145134_);}
	.st73{fill:url(#SVGID_00000009586202573072016620000003232807409784578744_);}
	.st74{fill:url(#SVGID_00000173839522978979176050000017931729325579250344_);}
	.st75{fill:url(#SVGID_00000075842834610627374670000015882651203725467279_);}
	.st76{fill:#FFFFFF;}
	.st77{fill:url(#SVGID_00000070077776877104972480000000569701765668181940_);}
	.st78{fill:url(#SVGID_00000047745062384210308010000013202868076388026771_);}
	.st79{fill:url(#SVGID_00000074411086880318287840000001612884480608293542_);}
	.st80{fill:url(#SVGID_00000103228044912962342380000002752458414945262480_);}
	.st81{fill:url(#SVGID_00000153680040450697751360000010811357358517402773_);}
	.st82{fill:url(#SVGID_00000090285889927467766970000017401070768715885736_);}
	.st83{fill:url(#SVGID_00000173863335358873976260000018392873747977327544_);}
	.st84{fill:url(#SVGID_00000011002069088570026640000012772277140408566153_);}
	.st85{fill:url(#SVGID_00000006696145559012444770000000522658602574875807_);}
	.st86{fill:url(#SVGID_00000180359052868376274770000002050645297885352887_);}
	.st87{fill:url(#SVGID_00000146496197664380382760000001805344244764205209_);}
	.st88{fill:url(#SVGID_00000085940113636250965800000004875526476203777438_);}
	.st89{fill:url(#SVGID_00000117646988804924856890000002550351571416416910_);}
	.st90{fill:url(#SVGID_00000052817881331785497550000017657112693881137031_);}
	.st91{fill:url(#SVGID_00000127023871100390160990000015177804862619133589_);}
	.st92{fill:url(#SVGID_00000142146898085981433120000005871747121592022437_);}
	.st93{fill:url(#SVGID_00000039834406850585319140000006005215065249933999_);}
	.st94{fill:url(#SVGID_00000152264067877721844590000016185434334419126673_);}
</style>
<g class="st0">
	<rect class="st1" width="1080" height="1080"/>
</g>
<g>
	<g>
		<linearGradient id="SVGID_1_" gradientUnits="userSpaceOnUse" x1="661.5417" y1="391.8224" x2="727.362" y2="391.8224">
			<stop  offset="0" style="stop-color:#F8A16B"/>
			<stop  offset="0.7016" style="stop-color:#F05485"/>
			<stop  offset="1" style="stop-color:#EC3290"/>
		</linearGradient>
		<path class="st2" d="M665.36,278.94c0.13,0.03,0.36,0.07,0.49,0.13c2.02,0.9,7.26,6.75,9.25,8.79
			c20.59,20.98,35.8,46.62,44.35,74.74c13.47,44.46,9.95,95.47-12.15,136.69c-0.67,1.25-2.28,5.05-3.46,5.4
			c18.61-34.87,25.29-74.88,19.04-113.9c-5.88-35.76-22.58-68.87-47.85-94.85c-4.21-4.29-8.6-8.92-13.49-12.44
			C662.73,281.92,664.07,280.44,665.36,278.94z"/>
		
			<linearGradient id="SVGID_00000037654094042920449480000002751623571299474327_" gradientUnits="userSpaceOnUse" x1="362.0605" y1="326.904" x2="514.9036" y2="326.904">
			<stop  offset="0" style="stop-color:#F8A16B"/>
			<stop  offset="0.7016" style="stop-color:#F05485"/>
			<stop  offset="1" style="stop-color:#EC3290"/>
		</linearGradient>
		<path style="fill:url(#SVGID_00000037654094042920449480000002751623571299474327_);" d="M514.53,240.15l0.37,0.02
			c-35.01,6.61-67.33,23.31-92.96,48.06c-33.82,33.06-53.24,78.13-54.04,125.42l-5.14-0.06l-0.61-0.48
			c-0.03-0.29-0.05-0.59-0.06-0.88c-0.25-5.64,1.25-13.79,2.1-19.47c5.64-37.68,22.76-71.11,48.49-98.96
			c21.63-23.41,50.78-40.16,81.17-49.2C500.37,242.65,507.71,240.42,514.53,240.15z"/>
		
			<linearGradient id="SVGID_00000157994472066839801790000010997888327633064336_" gradientUnits="userSpaceOnUse" x1="636.2993" y1="376.4396" x2="715.4312" y2="376.4396">
			<stop  offset="0" style="stop-color:#F8A16B"/>
			<stop  offset="0.7016" style="stop-color:#F05485"/>
			<stop  offset="1" style="stop-color:#EC3290"/>
		</linearGradient>
		<path style="fill:url(#SVGID_00000157994472066839801790000010997888327633064336_);" d="M639.64,273.92
			c4.9,2.74,9.6,6.89,13.93,10.49c22.76,18.83,40.23,43.27,50.69,70.9c11.55,30.39,14.21,63.44,7.66,95.29
			c-1.92,9.57-4.6,19.45-8.6,28.37l-0.24-0.24c10.24-31.38,13.68-57.43,7.7-90.13c-6.44-34.05-23.37-65.24-48.42-89.19
			c-8.09-7.65-16.92-14.14-26.07-20.45C637.26,277.18,638.48,275.56,639.64,273.92z"/>
		
			<linearGradient id="SVGID_00000136369867497100466990000002817347813056032397_" gradientUnits="userSpaceOnUse" x1="374.4147" y1="346.9885" x2="493.6372" y2="346.9885">
			<stop  offset="0" style="stop-color:#F8A16B"/>
			<stop  offset="0.7016" style="stop-color:#F05485"/>
			<stop  offset="1" style="stop-color:#EC3290"/>
		</linearGradient>
		<path style="fill:url(#SVGID_00000136369867497100466990000002817347813056032397_);" d="M493.38,257.41l0.26-0.01
			c-0.07,0.4-4.29,1.7-5,1.95c-14.97,5.28-29.54,13.73-42.26,23.17c-37.24,27.82-61.17,69.93-66.01,116.17
			c-0.61,6.24-1.11,12.81-0.86,19.07c0.22,5.5,1.61,12.71,0.83,18.02c-1.14,0.73-2.94,0.62-4.28,0.69l-0.96,0.11l-0.42-0.67
			c-1.58-38.47,3.54-70.66,24.05-104.07c18.19-29.63,44.34-53.53,76.27-67.59C480.91,261.65,487.1,258.91,493.38,257.41z"/>
		
			<linearGradient id="SVGID_00000003813478910889799330000002753399115769400237_" gradientUnits="userSpaceOnUse" x1="611.7841" y1="363.9604" x2="703.2006" y2="363.9604">
			<stop  offset="0" style="stop-color:#F8A16B"/>
			<stop  offset="0.7016" style="stop-color:#F05485"/>
			<stop  offset="1" style="stop-color:#EC3290"/>
		</linearGradient>
		<path style="fill:url(#SVGID_00000003813478910889799330000002753399115769400237_);" d="M614.29,273.24
			c26.23,12.8,48.41,32.61,64.09,57.23c24.37,38.05,29.97,80.33,20.39,124.14l-0.46,0.07c1.43-4.44,1.88-9.97,2.42-14.66
			c2.66-23.1,1.07-45.88-6-68.09c-11.23-34.65-34.28-64.25-65.13-83.62c-5.71-3.65-11.82-6.67-17.83-9.79
			C612.7,276.8,613.48,275,614.29,273.24z"/>
		
			<linearGradient id="SVGID_00000051352331749387278190000012023860279740396222_" gradientUnits="userSpaceOnUse" x1="386.1052" y1="366.9265" x2="476.0156" y2="366.9265">
			<stop  offset="0" style="stop-color:#F8A16B"/>
			<stop  offset="0.7016" style="stop-color:#F05485"/>
			<stop  offset="1" style="stop-color:#EC3290"/>
		</linearGradient>
		<path style="fill:url(#SVGID_00000051352331749387278190000012023860279740396222_);" d="M475.71,277.15l0.31,0.25
			c-4.82,3.56-11.36,6.32-16.66,10.05c-22.63,15.9-41.6,36.85-53.45,61.99c-12.57,26.49-17.35,56.01-13.77,85.11
			c0.78,6.81,1.8,14.33,4.13,20.78c-1.78,0.29-3.47,0.84-5.18,1.37c-0.34-0.16-0.56-0.45-0.81-0.72
			c-7.13-26.33-4.64-60.02,3.99-85.82C408.06,328.9,436.88,296.49,475.71,277.15z"/>
		
			<linearGradient id="SVGID_00000107567205001397669790000016474009937627154877_" gradientUnits="userSpaceOnUse" x1="588.9019" y1="355.2395" x2="691.3288" y2="355.2395">
			<stop  offset="0" style="stop-color:#F8A16B"/>
			<stop  offset="0.7016" style="stop-color:#F05485"/>
			<stop  offset="1" style="stop-color:#EC3290"/>
		</linearGradient>
		<path style="fill:url(#SVGID_00000107567205001397669790000016474009937627154877_);" d="M590.76,276.56
			c25.1,7.38,49.45,25.38,66.18,45.15c19.71,23.34,31.61,52.27,34.03,82.71c0.72,9.83,0.24,19.61-0.59,29.42l-0.41,0.08
			c-0.1-6.94,0.58-13.88,0.33-20.85c-0.85-24.9-8.38-49.11-21.81-70.09c-15.11-24.05-37.05-43.04-63.01-54.57
			c-5.31-2.36-10.92-4.77-16.6-6.06C589.63,280.43,590.25,278.55,590.76,276.56z"/>
		
			<linearGradient id="SVGID_00000139251764342819655930000012955062959573476283_" gradientUnits="userSpaceOnUse" x1="398.2615" y1="384.9006" x2="465.2215" y2="384.9006">
			<stop  offset="0" style="stop-color:#F8A16B"/>
			<stop  offset="0.7016" style="stop-color:#F05485"/>
			<stop  offset="1" style="stop-color:#EC3290"/>
		</linearGradient>
		<path style="fill:url(#SVGID_00000139251764342819655930000012955062959573476283_);" d="M464.97,297.03l0.25,0.17
			c-3.33,3.18-7.6,5.67-11.17,8.63c-8.14,6.86-15.51,14.59-21.98,23.04c-24.76,32.01-34.69,73.05-27.3,112.84
			c1.02,5.57,2.28,11.24,4.06,16.63c1.29,3.91,3.7,8.23,4.2,12.28c-1.29,0.69-2.59,1.29-3.94,1.86l-0.62,0.29l-0.69-0.28
			c-1.8-2.9-2.65-7.47-3.62-10.78c-6.76-23.28-7.72-47.86-2.8-71.6c5.64-27.76,20.17-55,40.49-74.84
			C448.91,308.36,456.75,302.48,464.97,297.03z"/>
		
			<linearGradient id="SVGID_00000010299230812909828480000001547708727997268145_" gradientUnits="userSpaceOnUse" x1="419.1814" y1="573.6383" x2="604.9548" y2="573.6383">
			<stop  offset="0" style="stop-color:#F8A16B"/>
			<stop  offset="0.7016" style="stop-color:#F05485"/>
			<stop  offset="1" style="stop-color:#EC3290"/>
		</linearGradient>
		<path style="fill:url(#SVGID_00000010299230812909828480000001547708727997268145_);" d="M419.18,546.79
			c2.97,1.46,9.62,8.65,13.22,11.35c15.88,11.86,32.38,21.31,51.01,28.18c31.83,11.74,68.21,13.35,101.12,5.43
			c6.4-1.54,13.09-3.23,19.07-5.99l1.32,4.81c0.1,0.36-0.07,0.7-0.16,1.06c-2.41,1.46-5.97,2.09-8.72,2.82
			c-17.12,4.54-34.82,6.54-52.52,5.94C497.52,599.21,451.08,580.38,419.18,546.79z"/>
		
			<linearGradient id="SVGID_00000118357492441528717810000012125186330073930658_" gradientUnits="userSpaceOnUse" x1="568.2877" y1="348.7018" x2="679.4218" y2="348.7018">
			<stop  offset="0" style="stop-color:#F8A16B"/>
			<stop  offset="0.7016" style="stop-color:#F05485"/>
			<stop  offset="1" style="stop-color:#EC3290"/>
		</linearGradient>
		<path style="fill:url(#SVGID_00000118357492441528717810000012125186330073930658_);" d="M568.92,283.3
			c33.75,7.14,61.68,23.74,82.86,51.17c14.31,18.7,23.48,40.81,26.62,64.14c0.68,5.02,1.42,10.46,0.78,15.5
			c-1.39-5.95-1.34-12.87-2.42-19.04c-3.42-18.72-10.91-36.45-21.93-51.96c-20.47-28.85-51.63-48.31-86.54-54.04
			C568.65,287.14,568.8,285.25,568.92,283.3z"/>
		
			<linearGradient id="SVGID_00000042719705552126469750000013355068288446364341_" gradientUnits="userSpaceOnUse" x1="442.5967" y1="570.1447" x2="617.8918" y2="570.1447">
			<stop  offset="0" style="stop-color:#F8A16B"/>
			<stop  offset="0.7016" style="stop-color:#F05485"/>
			<stop  offset="1" style="stop-color:#EC3290"/>
		</linearGradient>
		<path style="fill:url(#SVGID_00000042719705552126469750000013355068288446364341_);" d="M442.6,551.66
			c2.7,0.94,11.13,7.38,14.62,9.48c10.59,6.41,21.88,11.61,33.64,15.5c41.21,13.71,86.16,10.7,125.17-8.38
			c0.52,1.63,1.22,3.21,1.87,4.8c-0.07,0.45-0.05,0.62-0.37,0.95c-1.61,1.67-6.28,2.83-8.53,3.64
			c-18.91,7.03-38.89,10.74-59.06,10.98c-32.22,0.21-63.86-8.62-91.31-25.5C453.16,559.76,447.19,556.14,442.6,551.66z"/>
		
			<linearGradient id="SVGID_00000021090404148953014980000011501972792233313934_" gradientUnits="userSpaceOnUse" x1="410.3322" y1="401.0721" x2="458.2739" y2="401.0721">
			<stop  offset="0" style="stop-color:#F8A16B"/>
			<stop  offset="0.7016" style="stop-color:#F05485"/>
			<stop  offset="1" style="stop-color:#EC3290"/>
		</linearGradient>
		<path style="fill:url(#SVGID_00000021090404148953014980000011501972792233313934_);" d="M458.22,316.94
			c0.33,0.61-0.91,1.43-1.41,1.91c-4.99,4.8-9.69,9.56-14,14.98c-12.56,15.66-21.39,33.96-25.83,53.54
			c-7,31.11-2.22,67.57,15.02,94.74c-1.22,1.04-2.65,1.89-3.98,2.78c-0.23,0.16-0.68,0.23-0.95,0.31c-0.27-0.19-0.46-0.32-0.66-0.58
			c-2.25-2.94-3.75-7.45-5.19-10.89c-8.66-20.31-12.23-42.43-10.41-64.44C413.48,373.37,430.59,340.06,458.22,316.94z"/>
		
			<linearGradient id="SVGID_00000149354629510571361010000013423567493941955462_" gradientUnits="userSpaceOnUse" x1="545.8026" y1="344.1095" x2="665.4587" y2="344.1095">
			<stop  offset="0" style="stop-color:#F8A16B"/>
			<stop  offset="0.7016" style="stop-color:#F05485"/>
			<stop  offset="1" style="stop-color:#EC3290"/>
		</linearGradient>
		<path style="fill:url(#SVGID_00000149354629510571361010000013423567493941955462_);" d="M545.96,293.08
			c29.67,1.38,55.97,11,78.81,30.16c17.06,14.31,29.61,34.09,36.65,55.1c1.8,5.36,3.53,11.16,4.03,16.81
			c-2.1-5.02-2.97-10.8-4.8-15.99c-5.92-16.82-15.5-32.12-28.06-44.77c-23.41-23.67-53.76-35.25-86.79-35.41
			C546.05,296.95,546.07,295.1,545.96,293.08z"/>
		
			<linearGradient id="SVGID_00000141424285186295310970000009913405335379055036_" gradientUnits="userSpaceOnUse" x1="422.3764" y1="419.3485" x2="453.815" y2="419.3485">
			<stop  offset="0" style="stop-color:#F8A16B"/>
			<stop  offset="0.7016" style="stop-color:#F05485"/>
			<stop  offset="1" style="stop-color:#EC3290"/>
		</linearGradient>
		<path style="fill:url(#SVGID_00000141424285186295310970000009913405335379055036_);" d="M450.4,341.99
			c0.12,1.14-3.37,5.43-4.23,6.7c-3.43,5.06-6.66,10.38-9.34,15.87c-6.47,13.24-10.08,28.3-11.25,42.92
			c-2.27,31.27,7.88,62.17,28.23,86.01l-3.31,3.04c-0.7,0.26-0.83,0.21-1.53,0.07c-2.76-2.39-4.77-5.87-6.77-8.91
			c-11.32-17.2-17.53-37.36-19.42-57.76C420.16,398.13,430.07,366.57,450.4,341.99z"/>
		
			<linearGradient id="SVGID_00000097492728802621032110000012351926974717789089_" gradientUnits="userSpaceOnUse" x1="467.8568" y1="563.6414" x2="628.2983" y2="563.6414">
			<stop  offset="0" style="stop-color:#F8A16B"/>
			<stop  offset="0.7016" style="stop-color:#F05485"/>
			<stop  offset="1" style="stop-color:#EC3290"/>
		</linearGradient>
		<path style="fill:url(#SVGID_00000097492728802621032110000012351926974717789089_);" d="M624.63,550.78l0.9,0.12
			c1.25,0.91,2.02,2.81,2.77,4.16c-9.27,6.4-23.48,11.68-34.33,14.92c-40.97,12.03-85.05,7.29-122.53-13.18
			c-1.26-0.73-2.42-1.51-3.59-2.39c3.04,0.53,9.03,4.33,12.25,5.73c6.22,2.75,12.61,5.11,19.13,7.05c32.67,9.8,67.67,8.46,99.5-3.81
			C607.78,559.87,616.1,555.37,624.63,550.78z"/>
		
			<linearGradient id="SVGID_00000175323437319478058220000009703287788954277022_" gradientUnits="userSpaceOnUse" x1="485.6367" y1="548.062" x2="635.5683" y2="548.062">
			<stop  offset="0" style="stop-color:#F8A16B"/>
			<stop  offset="0.7016" style="stop-color:#F05485"/>
			<stop  offset="1" style="stop-color:#EC3290"/>
		</linearGradient>
		<path style="fill:url(#SVGID_00000175323437319478058220000009703287788954277022_);" d="M631.59,531.64
			c1.34,0.87,2.83,3.41,3.97,4.7c-9.62,6.39-19.07,11.97-29.69,16.53c-28.77,12.05-60.6,14.81-91.01,7.88
			c-8.52-1.99-16.71-4.95-24.82-8.19c-1.54-0.67-3.02-1.3-4.41-2.26l0.89,0.15l-0.04,0.51l0.63,0.36l0.02-0.66
			c12.72,4.81,24.61,8.42,38.12,10.24C563.73,566.07,600.92,555.03,631.59,531.64z"/>
		
			<linearGradient id="SVGID_00000007397498861865980200000011822362125011870133_" gradientUnits="userSpaceOnUse" x1="501.4177" y1="532.9267" x2="639.3471" y2="532.9267">
			<stop  offset="0" style="stop-color:#F8A16B"/>
			<stop  offset="0.7016" style="stop-color:#F05485"/>
			<stop  offset="1" style="stop-color:#EC3290"/>
		</linearGradient>
		<path style="fill:url(#SVGID_00000007397498861865980200000011822362125011870133_);" d="M635.02,513.36
			c1.61,0.52,3.27,3.08,4.33,4.39c-9.45,7.79-18.89,14.75-29.94,20.21c-31.81,15.71-69.73,19.25-103.53,7.81
			c-1.59-0.49-2.99-1.07-4.46-1.86c12.43,4,25.37,6.23,38.42,6.62C576.1,551.78,608.77,537.87,635.02,513.36z"/>
		
			<linearGradient id="SVGID_00000048485062742247220230000012040703867247747733_" gradientUnits="userSpaceOnUse" x1="523.1154" y1="516.7404" x2="643.0006" y2="516.7404">
			<stop  offset="0" style="stop-color:#F8A16B"/>
			<stop  offset="0.7016" style="stop-color:#F05485"/>
			<stop  offset="1" style="stop-color:#EC3290"/>
		</linearGradient>
		<path style="fill:url(#SVGID_00000048485062742247220230000012040703867247747733_);" d="M637.95,493.1
			c1.76,0.77,3.51,2.49,5.05,3.67c-8.02,8.65-16.47,16.51-26.35,23c-22.74,15.04-49.79,22.19-76.99,20.33
			c-3.67-0.29-7.47-0.49-11.07-1.24c-1.15-0.21-4.54-1.25-5.45-0.82l-0.02-0.58c0.35,0.03,0.68,0.06,1.02,0.16
			c2.07,0.66,4.51,0.55,6.68,0.73c8.57,0.68,16.52,0.99,25.14,0.11C589.21,535.06,617.02,518.81,637.95,493.1z"/>
	</g>
	<g>
		<g>
			<path class="st76" d="M352.64,834.09l0.4-0.79c18.86-3.37,27.7-12.21,27.7-17.87c-0.3-3.97-3.38-11.32-7.15-18.07l5.76-6.05h0.79
				c4.27,7.74,7.15,16.58,7.15,22.33c0,3.28-0.89,6.85-2.68,10.12c-3.87,7.15-14.19,13.6-27.79,16.08L352.64,834.09z"/>
			<path class="st76" d="M399.69,822.48v-66.11l7.24-1.89l0.5,0.4l-0.1,66.41l-7.05,1.49L399.69,822.48z"/>
			<path class="st76" d="M698.47,754.59l-6.94,1.77v48.44c0,3.59-0.29,6.07-0.71,7.86c-2.48,1.79-6.04,1.87-9.31,1.87h-0.21
				c-6.06,0-7.83-1.37-11.52-8.83c-3.85-8.04-7.04-15.37-14.58-15.37c-9.23,0-13.9,12-17.67,18.06c-3.19,4.96-4.67,6.14-8.73,6.14
				l-0.03,0.11H463.33c-0.47-0.05-1-0.11-1.61-0.11c-5.14,0-7.15-1.58-11-9.52c-1.4-2.87-8.65-18.75-11.42-25.02h-0.79l-5.88,6.17
				c3.98,6.86,11.42,21.33,13.11,24.71l0.32,0.5c-3.38,2.37-10.23,3.56-16.3,3.56c-2.27,0-7.65-0.29-10.81-0.98l-0.5,0.4l-1.08,7.25
				c3.77,0.9,9.62,1.19,11.5,1.19c9.73,0,16.69-1.9,20.36-5.78c2.77,4.09,5.85,5.27,10.52,5.27h166.97c0.32,0,0.61,0,0.9-0.03
				c7.38-0.05,10.26-1.27,14.19-6.33c6.36,4.56,14,7.54,19.75,7.54c3.96,0,6.25-1.48,7.75-4.46c2.66,2.27,5.85,3.27,10.02,3.27
				c0.05,0,0.13,0,0.18-0.03v0.03c12.21,0,19.75-3.77,19.75-18.35v-49.05L698.47,754.59z M659.76,815.82
				c-3.48,0-9.41-2.48-14.48-5.85c2.87-5.75,6.14-11.89,9.7-11.89c2.58,0,5.17,3.67,9.26,13.47c0.29,0.61,0.47,1.21,0.79,1.79
				C663.93,815.02,662.34,815.82,659.76,815.82z"/>
			<path class="st76" d="M712.17,822.48v-66.11l7.24-1.89l0.5,0.4l-0.1,66.41l-7.05,1.49L712.17,822.48z"/>
		</g>
		<g>
			<path class="st76" d="M389.65,653.06c-10.41,0-18.64,3.68-24.46,10.95c-5.68,7.09-8.56,17.66-8.56,31.42
				c0,13.77,2.88,24.34,8.56,31.42c5.82,7.27,14.05,10.95,24.46,10.95c10.41,0,18.64-3.68,24.46-10.95
				c5.68-7.09,8.56-17.66,8.56-31.42c0-13.76-2.88-24.33-8.56-31.42C408.28,656.75,400.05,653.06,389.65,653.06z M406.61,721.49
				c-4.17,4.99-9.72,7.42-16.96,7.42c-7.25,0-12.8-2.43-16.97-7.42c-4.23-5.06-6.38-12.71-6.38-22.74v-6.61
				c0-10.03,2.15-17.68,6.38-22.75c4.17-4.99,9.72-7.42,16.97-7.42c7.24,0,12.79,2.43,16.96,7.42c4.23,5.07,6.38,12.72,6.38,22.75
				v6.61C412.98,708.77,410.84,716.42,406.61,721.49z"/>
			<path class="st76" d="M500.02,694.5c3.52-4.14,5.31-9.72,5.31-16.57c0-7.09-1.91-12.83-5.68-17.05
				c-3.84-4.31-9.45-6.49-16.66-6.49h-32.47v82.11h9.35V701.6h18.51l20.03,34.89h10.73l-20.64-35.61
				C493.33,699.96,497.2,697.82,500.02,694.5z M459.87,663.29h23.12c2.2,0,4.12,0.34,5.69,1c1.56,0.66,2.87,1.54,3.9,2.62
				c1.03,1.08,1.77,2.33,2.28,3.8c0.53,1.56,0.8,3.19,0.8,4.86v4.83c0,1.67-0.27,3.3-0.79,4.85c-0.51,1.48-1.25,2.73-2.28,3.81
				c-1.03,1.08-2.34,1.96-3.9,2.62c-1.57,0.66-3.49,1-5.69,1h-23.12V663.29z"/>
			<path class="st76" d="M579.17,692.75c1.33-1,2.54-2.19,3.61-3.57c2.44-3.17,3.69-7.63,3.69-13.26c0-6.76-1.84-12.09-5.47-15.84
				c-3.66-3.78-8.78-5.69-15.21-5.69H534.4v82.11h33.46c6.94,0,12.4-2.25,16.25-6.7c3.75-4.34,5.65-10.09,5.65-17.11
				c0-6.33-1.54-11.41-4.57-15.08C583.49,695.55,581.48,693.92,579.17,692.75z M576.17,669.67c0.48,1.31,0.72,2.74,0.72,4.25v4.39
				c0,1.51-0.24,2.94-0.72,4.25c-0.46,1.27-1.13,2.34-2.05,3.29c-0.92,0.94-2.1,1.72-3.53,2.31c-1.43,0.59-3.16,0.89-5.15,0.89
				h-21.69v-25.77h21.69c2,0,3.75,0.29,5.19,0.86c1.4,0.55,2.58,1.31,3.48,2.24C575.03,667.33,575.71,668.41,576.17,669.67z
				 M543.75,697.96h23.45c2.28,0,4.25,0.34,5.87,1.01c1.59,0.66,2.94,1.56,4,2.68c1.06,1.12,1.83,2.4,2.33,3.92
				c0.53,1.59,0.8,3.29,0.8,5.06v4.4c0,1.76-0.27,3.43-0.8,4.99c-0.5,1.48-1.27,2.75-2.33,3.88c-1.06,1.12-2.41,2.02-4,2.68
				c-1.61,0.67-3.58,1.01-5.87,1.01h-23.45V697.96z"/>
			<polygon class="st76" points="613.22,663.07 624.77,663.07 624.77,727.81 613.22,727.81 613.22,736.49 645.68,736.49 
				645.68,727.81 634.12,727.81 634.12,663.07 645.68,663.07 645.68,654.38 613.22,654.38 			"/>
			<polygon class="st76" points="663.74,654.38 663.74,663.29 690.71,663.29 690.71,736.49 700.06,736.49 700.06,663.29 
				727.02,663.29 727.02,654.38 			"/>
		</g>
	</g>
</g>
</svg>
