<?xml version="1.0" encoding="UTF-8"?>
<svg id="Layer_1" xmlns="http://www.w3.org/2000/svg" version="1.1" viewBox="0 0 304.3 234.8">
  <!-- Generator: Adobe Illustrator 29.7.1, SVG Export Plug-In . SVG Version: 2.1.1 Build 8)  -->
  <defs>
    <style>
      .st0 {
        fill: #00ac65;
      }

      .st1 {
        fill: #df7c2e;
      }

      .st2 {
        fill: #326a9d;
      }

      .st3 {
        fill: #808285;
      }

      .st4 {
        fill: #005187;
      }
    </style>
  </defs>
  <path class="st3" d="M26.5,111.3c-.7,0-1.2-.5-1.2-1.2s.5-1.2,1.2-1.2,1.2.5,1.2,1.2-.5,1.2-1.2,1.2ZM30.9,110.1c0-.7-.5-1.2-1.2-1.2s-1.2.5-1.2,1.2.5,1.2,1.2,1.2,1.2-.5,1.2-1.2ZM40.1,127.3c-.7,0-1.2.5-1.2,1.2s.5,1.2,1.2,1.2,1.2-.5,1.2-1.2-.5-1.2-1.2-1.2ZM36.8,127.3c-.7,0-1.2.5-1.2,1.2s.5,1.2,1.2,1.2,1.2-.5,1.2-1.2-.5-1.2-1.2-1.2ZM36.2,125.1h-.6c-2.1,0-3.8-.3-4.6-1.6-.7.3-1.9.7-3.5.7-2.5,0-5.3-1.2-5.3-5s2.2-5.3,5.8-5.3h4.8v7.4c0,1.6.8,2,2.8,2h.2c2.2,0,3.3-.9,3.3-3.2v-6.3h2.1v6.7c0,3-1.7,4.5-5.1,4.5M30.6,115.6h-2.4c-2,0-3.9.6-3.9,3.6s2.1,3.2,3.3,3.2,2.3-.3,2.9-.7v-6.1ZM70.5,106.1c-.7,0-1.2.5-1.2,1.2s.5,1.2,1.2,1.2,1.2-.5,1.2-1.2-.5-1.2-1.2-1.2ZM67.7,110.1c0,.7.5,1.2,1.2,1.2s1.2-.5,1.2-1.2-.5-1.2-1.2-1.2-1.2.5-1.2,1.2ZM71,110.1c0,.7.5,1.2,1.2,1.2s1.2-.5,1.2-1.2-.5-1.2-1.2-1.2-1.2.5-1.2,1.2ZM85.5,127.2c-.7,0-1.2.5-1.2,1.2s.5,1.2,1.2,1.2,1.2-.5,1.2-1.2-.5-1.2-1.2-1.2ZM92.8,120.2c0,2.2-1.1,3.2-3.3,3.2s-2.9-.8-2.9-2.5v-6.9h-2.2v6.3c0,2.2-1,3.2-3.3,3.2h0c-2.1,0-2.8-1-2.8-2.8v-6.7h-2.2v6.3c0,1.2-.2,3.2-2.2,3.2s-2.4-.9-2.4-2.5v-4.5h-2.2v4.1c0,1.6-.5,2.9-2.3,2.9s-2.4-.9-2.4-2.5v-4.5h-2.2v4.1c0,1.6-.5,2.9-2.3,2.9h-11.4v-9.5h-2.2v10.7c0,2.3-.7,3.3-2.4,3.3s-.8,0-1.2-.1l-.3,1.8c.5.1,1.1.2,1.6.2,2.8,0,4.2-1.5,4.4-4.6h11.7c2.3,0,3.2-1,3.7-1.7.6,1,1.7,1.7,3.2,1.7,2.3,0,3.2-1,3.7-1.7.6,1,1.8,1.7,3.4,1.7s2.7-.7,3.3-1.7c.8,1.2,2.2,1.7,3.8,1.7h0c2.2,0,3.6-.6,4.4-1.8.7,1.2,2.1,1.7,3.6,1.7h.3c3.4,0,5.1-1.5,5.1-4.5v-14.8h-2.2v14.4ZM99.4,125.1h2.2v-19.3h-2.2v19.3Z"/>
  <path class="st3" d="M121.6,119.1v1.5c0,3-1.3,4.5-4.7,4.5h-5.6v-1.8h5.1c2.3,0,3-.9,3-3.2v-.6c0-2.4-.9-3.9-4.6-3.9h-1.9v-1.8h2.6c4.2,0,6,2.1,6,5.2M126.6,124.6c0,2.3-.7,3.3-2.4,3.3s-.8,0-1.2-.1l-.3,1.8c.5.1,1.1.2,1.6.2,3.1,0,4.4-1.8,4.4-5.4v-10.4h-2.2v10.7h0ZM133.1,125.1h2.2v-19.3h-2.2v19.3ZM202.5,105.8h2.2v14.8c0,3-1.7,4.5-5.1,4.5s-3.3-.4-4.1-2c-.9,1.3-2.3,2.1-4.1,2.1s-2.8-.5-4.4-1.8c-.4.9-1.1,1.7-2.9,1.7h-35.1c-.3,2.7-1.7,4.6-5.3,4.6s-2.3-.2-3.4-.4l.3-1.7c.8.2,1.9.4,2.9.4,2.1,0,3.2-.9,3.3-2.9h-1.8c-5.5,0-6.7-2.7-6.7-5.4s2.3-6,5.6-6,5.1,2,5.1,5.2v4.5h34.4c1.1,0,2-.8,2.1-2.2.2-4.8,2.1-7.4,5.7-7.4s5.3,2.9,5.3,5.6,0,1.3-.2,1.9c.1,1.6,1.3,2.1,2.9,2.1s3.3-.9,3.3-3.2v-14.4h0ZM146.9,119.6c0-2.4-.8-4.1-3.1-4.1s-3.2.6-3.2,4.1,1.9,3.7,4.6,3.7h1.6v-3.7ZM194.4,119.4c0-2.7-1.2-3.9-3.1-3.9s-3.5,1.9-3.7,5.9c1.3,1.2,2.4,1.9,3.9,1.9,2.4,0,2.9-2.4,2.9-3.9M209.1,125.1h2.2v-19.3h-2.2v19.3Z"/>
  <path class="st3" d="M22.3,137.2h1.7v6.2h6.9v-6.2h1.7v14.3h-1.7v-6.6h-6.9v6.6h-1.7v-14.3ZM46.5,147.3c0,2.6-2,4.5-5.3,4.5s-5.3-1.9-5.3-4.5v-10.1h1.7v9.9c0,2.1,1.2,3.2,3.5,3.2s3.5-1.3,3.5-3.2v-9.9h1.7v10.1ZM56.8,149.9h0l4-12.7h3v14.3h-1.7v-13h0l-4.3,13h-2.2l-4.1-13h0v13h-1.6v-14.3h2.9l4,12.7ZM69,151.5h-1.9l5.5-14.3h2.3l5.5,14.3h-1.9l-1.7-4.3h-6.2l-1.6,4.3ZM71.1,145.7h5.3l-2.7-7.2-2.7,7.2ZM92.6,149.6h0v-12.5h1.6v14.3h-2.6l-6.3-12.6h0v12.6h-1.6v-14.3h2.6l6.2,12.5Z"/>
  <path class="st3" d="M103.6,137.2h4.9c2.5,0,4.5,1.1,4.5,3.8s-.9,2.9-2.6,3.3h0c1.1.3,1.6,1,2.1,2.7.5,1.6.9,2.9,1.3,4.5h-1.9c-.3-1.1-.8-3.2-1.1-4.2-.5-1.7-.9-2.3-3.1-2.3h-2.3v6.4h-1.7v-14.3ZM105.4,143.6h2.8c1.9,0,3.1-.8,3.1-2.5s-1.5-2.4-3-2.4h-2.9v5ZM116.4,137.2h7.9v1.5h-6.1v4.8h5.6v1.5h-5.6v5.2h6.3v1.5h-8v-14.3h0ZM134.7,139c-1-.4-2.1-.6-3.1-.6s-2.9.5-2.9,2.2.8,2,3,2.9c2.7,1,4.1,2.1,4.1,4.4s-2.4,4-4.8,4-2.9-.3-4.2-.9l.4-1.5c1.3.6,2.7.9,3.8.9,1.7,0,3-.8,3-2.4s-1.3-2.2-3.4-3.1c-2.4-1-3.7-2.2-3.7-4.1s2.5-3.8,4.6-3.8,2.5.2,3.5.6l-.4,1.5h0ZM144.5,151.7c-4,0-6.4-3.1-6.4-7.4s2.3-7.4,6.4-7.4,6.4,3.1,6.4,7.4-2.3,7.4-6.4,7.4ZM144.5,138.4c-3.1,0-4.6,2.7-4.6,6s1.5,5.9,4.6,5.9,4.6-2.7,4.6-5.9-1.5-6-4.6-6ZM164.4,147.3c0,2.6-2,4.5-5.3,4.5s-5.2-1.9-5.2-4.5v-10.1h1.7v9.9c0,2.1,1.2,3.2,3.5,3.2s3.5-1.3,3.5-3.2v-9.9h1.7v10.1h0ZM167.7,137.2h4.9c2.5,0,4.5,1.1,4.5,3.8s-.9,2.9-2.6,3.3h0c1.1.3,1.6,1,2.1,2.7.5,1.6.9,2.9,1.3,4.5h-1.9c-.3-1.1-.8-3.2-1.1-4.2-.5-1.7-.9-2.3-3.1-2.3h-2.3v6.4h-1.7v-14.3ZM169.4,143.6h2.8c1.9,0,3.1-.8,3.1-2.5s-1.5-2.4-3-2.4h-2.9v5ZM189.1,139c-.7-.4-1.7-.6-2.7-.6-3.6,0-5.3,2.6-5.3,6s1.8,5.9,5.3,5.9,2.1-.2,2.9-.7l.5,1.4c-1,.6-2.3.8-3.5.8-4.4,0-6.9-3-6.9-7.4s2.5-7.4,7.1-7.4,2.4.2,3.3.7l-.5,1.4h0ZM192.4,137.2h7.9v1.5h-6.1v4.8h5.6v1.5h-5.6v5.2h6.3v1.5h-8v-14.3h0ZM210.3,139c-1-.4-2.1-.6-3.2-.6s-2.9.5-2.9,2.2.8,2,3,2.9c2.7,1,4.1,2.1,4.1,4.4s-2.4,4-4.8,4-2.9-.3-4.2-.9l.4-1.5c1.3.6,2.7.9,3.8.9,1.7,0,3-.8,3-2.4s-1.3-2.2-3.4-3.1c-2.4-1-3.7-2.2-3.7-4.1s2.5-3.8,4.6-3.8,2.5.2,3.5.6l-.4,1.5h0Z"/>
  <path class="st3" d="M22.3,160.3h4.1c4.4,0,7,2.8,7,7.2s-2.6,7.2-7,7.2h-4.1v-14.3h0ZM24,173.2h2.1c3.6,0,5.5-2.1,5.5-5.7s-1.9-5.7-5.5-5.7h-2.1v11.4h0ZM36.3,160.3h7.9v1.5h-6.1v4.8h5.6v1.5h-5.6v5.2h6.3v1.5h-8v-14.3h0ZM45.4,160.3h1.9l4.4,12.7h0l4.3-12.7h1.9l-5.1,14.3h-2.2l-5.1-14.3h0ZM59.7,160.3h7.9v1.5h-6.1v4.8h5.6v1.5h-5.6v5.2h6.3v1.5h-8v-14.3h0ZM70.6,160.3h1.7v12.9h6.3v1.5h-8.1v-14.3ZM85.5,174.9c-4,0-6.4-3.1-6.4-7.4s2.3-7.4,6.4-7.4,6.4,3.1,6.4,7.4-2.3,7.4-6.4,7.4ZM85.5,161.5c-3.1,0-4.6,2.7-4.6,6s1.5,5.9,4.6,5.9,4.6-2.7,4.6-5.9-1.5-6-4.6-6ZM94.2,160.3h4.7c2.5,0,4.7.9,4.7,4s-2.2,4.3-4.7,4.3h-2.9v6h-1.7v-14.3h0ZM95.9,167.2h2.8c1.7,0,3.1-.5,3.1-2.8s-1.5-2.6-3.3-2.6h-2.6v5.4h0ZM112.7,173h0l4-12.7h3v14.3h-1.7v-13h0l-4.3,13h-2.2l-4.1-13h0v13h-1.6v-14.3h2.9l4,12.7ZM122.5,160.3h7.9v1.5h-6.1v4.8h5.6v1.5h-5.6v5.2h6.3v1.5h-8v-14.3h0ZM141.8,172.8h0v-12.5h1.7v14.3h-2.6l-6.3-12.6h0v12.6h-1.6v-14.3h2.6l6.2,12.5h0ZM149,161.8h-4.3v-1.5h10.3v1.5h-4.2v12.9h-1.7v-12.9h0Z"/>
  <path class="st3" d="M162.8,160.3h7.5v1.5h-5.8v4.8h5.5v1.5h-5.5v6.6h-1.7v-14.3h0ZM183.1,170.4c0,2.6-2,4.5-5.3,4.5s-5.3-1.9-5.3-4.5v-10.1h1.7v9.9c0,2.1,1.2,3.2,3.5,3.2s3.5-1.3,3.5-3.2v-9.9h1.7v10.1ZM194.9,172.8h0v-12.5h1.6v14.3h-2.6l-6.3-12.6h0v12.6h-1.6v-14.3h2.6l6.2,12.5ZM200.2,160.3h4.1c4.4,0,7,2.8,7,7.2s-2.6,7.2-7,7.2h-4.1v-14.3h0ZM202,173.2h2.1c3.6,0,5.5-2.1,5.5-5.7s-1.9-5.7-5.5-5.7h-2.1v11.4h0Z"/>
  <path class="st3" d="M38,101.1c0-.7-.5-1.2-1.2-1.2s-1.2.5-1.2,1.2.5,1.2,1.2,1.2,1.2-.5,1.2-1.2ZM40.1,102.3c.7,0,1.2-.5,1.2-1.2s-.5-1.2-1.2-1.2-1.2.5-1.2,1.2.5,1.2,1.2,1.2ZM99.5,86.5h2.1v6.7c0,3-1.7,4.5-5.1,4.5s-.2,0-.3,0c-1.5,0-2.9-.6-3.6-1.7-.8,1.2-2.3,1.8-4.4,1.8s-3.3-.4-4.1-2c-.9,1.3-2.3,2.1-4.1,2.1s-2.8-.5-4.4-1.8c-.4.9-1.1,1.7-2.9,1.7h-28.3c-.1,0-.2,0-.3,0-1.5,0-2.9-.6-3.6-1.7-.8,1.2-2.3,1.8-4.4,1.8h-.6c-2.1,0-3.8-.3-4.6-1.6-.7.3-1.9.7-3.5.7-2.5,0-5.3-1.2-5.3-5s2.2-5.3,5.8-5.3h4.8v7.4c0,1.6.8,2,2.8,2h.2c2.2,0,3.3-.9,3.3-3.2v-6.3h2.2v6.9c0,1.7,1.1,2.5,2.9,2.5h28c1.1,0,2-.8,2.1-2.2.2-4.8,2.1-7.4,5.7-7.4s5.3,2.9,5.3,5.6,0,1.3-.2,1.9c.1,1.6,1.3,2.1,2.9,2.1s3.3-.9,3.3-3.2v-6.3h2.2v6.9c0,1.7,1.1,2.5,2.9,2.5s3.3-.9,3.3-3.2v-6.3h0ZM30.7,88.2h-2.4c-2,0-3.9.6-3.9,3.6s2.1,3.2,3.3,3.2,2.3-.3,2.9-.7v-6.1h0ZM83.1,92c0-2.7-1.2-3.9-3.1-3.9s-3.5,1.9-3.7,5.9c1.3,1.2,2.4,1.9,3.9,1.9,2.4,0,2.9-2.4,2.9-3.9ZM25.2,82.7c0-.7.5-1.2,1.2-1.2s1.2.5,1.2,1.2-.5,1.2-1.2,1.2-1.2-.5-1.2-1.2ZM29.8,83.9c.7,0,1.2-.5,1.2-1.2s-.5-1.2-1.2-1.2-1.2.5-1.2,1.2.5,1.2,1.2,1.2ZM92.2,83.9c.7,0,1.2-.5,1.2-1.2s-.5-1.2-1.2-1.2-1.2.5-1.2,1.2.5,1.2,1.2,1.2ZM102,81.4c-.7,0-1.2.5-1.2,1.2s.5,1.2,1.2,1.2,1.2-.5,1.2-1.2-.5-1.2-1.2-1.2ZM98.7,83.9c.7,0,1.2-.5,1.2-1.2s-.5-1.2-1.2-1.2-1.2.5-1.2,1.2.5,1.2,1.2,1.2Z"/>
  <path class="st3" d="M129.2,96.7c0,3.6-2.6,5.6-9.2,5.6s-8.7-1.9-8.7-6.5.5-3.3,1.4-5.1l1.9.7c-.8,1.8-1.1,3.2-1.1,4.6,0,3.2,2.3,4.6,6.7,4.6s6.7-1.3,6.7-3.3c-.6.2-1.3.5-2.7.5-3.9,0-5.8-2.3-5.8-5.4s2.3-6,5.6-6,5.1,2,5.1,5.2v5.2h0ZM127,92.2c0-2.4-.7-4.1-3.1-4.1s-3.2.5-3.2,4.1,2.2,3.7,3.8,3.7,2-.3,2.5-.6v-3.2ZM143.3,91.5v5.1c0,3.2-1.3,5.7-5.4,5.7s-2.3-.2-3.4-.4l.3-1.7c.8.2,1.9.4,2.9.4,2.1,0,3.3-.9,3.3-3.4-.6.2-1.3.5-2.7.5-3.8,0-5.9-2.3-5.9-5.4s2.4-6,5.7-6,5.1,2,5.1,5.2ZM141.1,92.2c0-2.4-.7-4.1-3.1-4.1s-3.2.5-3.2,4.1,2.2,3.7,3.8,3.7,2.1-.3,2.5-.6v-3.2ZM211.3,92.2v.9c0,3-1.3,4.5-4.6,4.5h-13.7c0,0-.2,0-.3,0-1.5,0-2.8-.6-3.5-1.7-.8,1.2-2.3,1.8-4.4,1.8h-25.4c-.1,0-.3,0-.4,0-1.1,0-2.4-.6-3.1-1.6-.7,1.1-1.9,1.7-4,1.7h-5.6v-1.8h5.1c2.3,0,3-.9,3-3.2v-.6c0-2.4-.9-3.9-4.6-3.9h-1.9v-1.8h2.6c4.2,0,6,2.1,6,5.2v1.7c0,1.3,1,2.5,2.5,2.5h25.4c2.2,0,3.3-.9,3.3-3.2v-6.3h2.2v6.9c0,1.7,1.1,2.5,2.9,2.5h2.9v-9.5h2.2v1.8c2.6-1.3,4.9-1.9,7.1-1.9,5,0,6.4,3.1,6.4,5.9M209.2,92.8c0-2.7-1.2-4.7-4.5-4.7s-4.8.8-6.9,2v5.8h8.4c2.3,0,3-.9,3-3.1ZM124.4,82.6c0-.7.5-1.2,1.2-1.2s1.2.5,1.2,1.2-.5,1.2-1.2,1.2-1.2-.5-1.2-1.2ZM122.3,83.9c.7,0,1.2-.5,1.2-1.2s-.5-1.2-1.2-1.2-1.2.5-1.2,1.2.5,1.2,1.2,1.2ZM188.8,83.9c.7,0,1.2-.5,1.2-1.2s-.5-1.2-1.2-1.2-1.2.5-1.2,1.2.5,1.2,1.2,1.2Z"/>
  <path class="st4" d="M237.8,172.3c6-6,32.1-33.1,38.9-50.3,0,0-27,31-42.7,40-4.6-14.5-6.8-30.2-6.3-45.7,6.1,3.9,9.8,13,13,16.9.9-6.3,1-12.4.3-15.6,4.9,3.2,9.3,6.9,13,11-.4-7.5-3-14.5-7.5-20.4,8.7.2,17.3,1.5,25.3,3.7-6.9-7.4-16.5-12.7-27.4-15.3.7-.3,1.5-.6,2.3-1,8.6-4,15.1-8.2,19-11,5.6,8.3,10.8,17,14,23.9,1.5,3.1,2.3,6.5,2.3,10.2s-.7,6.5-2,9.4c-6.9,15.1-24.7,36.6-39.9,49.3-.8-1.6-1.5-3.3-2.2-5h0Z"/>
  <path class="st2" d="M258.8,95.4c-3.6,0-7,.8-10.1,2.3,9.1,2.9,17.1,7.6,23.1,14.1-8-2.3-16.5-3.5-25.3-3.7,4.5,6,7.1,13,7.5,20.4-3.7-4.1-8.1-7.8-13-11,.7,3.3.7,9.3-.3,15.6,4.1,5.1,10.4,8.4,17.4,8.6,10.2-10.1,18.5-19.7,18.5-19.7-2.2,5.6-6.4,12.2-11.4,18.8,9.6-2.8,16.6-11.7,16.6-22.2s-10.4-23.2-23.2-23.2"/>
  <path class="st0" d="M235,77.9c2.6-7,5.8-13.8,9.8-20.1,1.4,1.4,3,3.2,4.8,5.2-4.2,5.3-9.1,10.3-14.5,14.9"/>
  <path class="st1" d="M263.3,81.1c-7.9,1.2-17.7,3.8-21.2,4.7,4.6-6.4,7.5-13.4,9.4-20.5,3.7,4.5,7.8,9.9,11.8,15.7Z"/>
</svg>